<svg width="161" height="32" viewBox="0 0 161 32" fill="none" xmlns="http://www.w3.org/2000/svg">
    <g clip-path="url(#clip0)">
        <path fill-rule="evenodd" clip-rule="evenodd"
              d="M114.674 16.3346C114.65 19.0666 114.618 21.7992 114.605 24.5321C114.596 26.5221 113.859 27.6425 111.626 27.4442C109 27.2115 106.329 27.6806 103.729 26.8987C100.077 25.8003 97.8441 23.0892 97.7772 19.2815C97.7062 15.3089 97.8052 11.333 97.8411 7.35852C97.8515 6.24543 97.921 5.04049 99.374 4.96278C101.004 4.87581 101.178 6.18139 101.183 7.36933C101.199 11.0125 101.106 14.6561 101.122 18.2998C101.137 21.7635 103.008 23.8288 106.067 23.8795C109.237 23.9326 111.179 21.8363 111.234 18.2439C111.29 14.6834 111.302 11.123 111.333 7.56166C111.343 6.32897 111.509 5.04438 113.064 5.08055C114.596 5.11698 114.75 6.42301 114.745 7.63981C114.734 10.5377 114.699 13.4359 114.674 16.3346"
              fill="#2C78F6"/>
        <path fill-rule="evenodd" clip-rule="evenodd"
              d="M141.562 27.7375C137.776 27.7402 134.646 25.907 133.488 23.0625C133.044 21.9733 132.803 20.8604 134.023 20.2581C135.232 19.6617 135.969 20.5052 136.592 21.5171C138.273 24.2484 141.716 25.1839 144.522 23.7188C145.597 23.1565 146.472 22.3605 146.448 21.0576C146.422 19.6628 145.544 18.7444 144.294 18.3125C143.37 17.9931 142.37 17.8435 141.391 17.7532C139.533 17.5819 137.83 17.0596 136.356 15.8871C133.412 13.5436 133.266 9.61483 136.024 7.0486C139.234 4.06136 145.022 4.41163 147.837 7.776C148.15 8.15021 148.428 8.57157 148.637 9.01124C149.168 10.1262 149.495 11.341 148.11 12.0122C146.833 12.6302 146.122 11.6806 145.648 10.6411C144.529 8.18395 142.425 7.98081 140.203 8.3888C138.762 8.65408 137.567 9.46779 137.556 11.2013C137.547 12.8032 138.62 13.5199 139.96 13.9632C140.348 14.0914 140.759 14.1649 141.164 14.2238C141.573 14.2833 141.991 14.2765 142.401 14.3274C146.723 14.8586 150.053 17.9106 149.938 21.2264C149.814 24.7543 145.98 27.7347 141.562 27.7375Z"
              fill="#2C78F6"/>
        <path fill-rule="evenodd" clip-rule="evenodd"
              d="M129.224 14.2741C129.194 17.8348 129.15 21.3953 129.14 24.9565C129.136 26.2509 128.751 27.4597 127.358 27.4687C126.018 27.4786 125.76 26.1378 125.764 25.0603C125.787 17.7738 125.858 10.4862 125.954 3.19931C125.968 2.1514 126.358 1.13107 127.62 1.11351C129.053 1.09337 129.33 2.15465 129.32 3.34281C129.287 6.98691 129.255 10.6304 129.225 14.2741"
              fill="#2C78F6"/>
        <path fill-rule="evenodd" clip-rule="evenodd"
              d="M23.2757 13.2343C23.3068 9.67298 23.339 6.11194 23.368 2.55099C23.3777 1.39963 23.5462 0.266815 24.9873 0.226162C26.4113 0.18673 26.7611 1.30442 26.7553 2.44491C26.7191 9.73273 26.6558 17.0209 26.5572 24.3079C26.5414 25.4556 26.0353 26.6154 24.7474 26.5649C23.441 26.5134 23.1718 25.3193 23.1812 24.1656C23.2103 20.5215 23.2439 16.8781 23.2757 13.2343"
              fill="#2C78F6"/>
        <path fill-rule="evenodd" clip-rule="evenodd"
              d="M118.627 13.8338C118.656 10.4457 118.674 7.05632 118.722 3.66729C118.738 2.51254 118.642 1.14091 120.29 1.0774C121.941 1.01397 122.016 2.34538 122.009 3.52731C121.966 10.636 121.897 17.745 121.827 24.8531C121.816 26.0941 121.498 27.4193 120.073 27.3809C118.602 27.3415 118.524 25.9378 118.533 24.7454C118.56 21.1078 118.594 17.4714 118.626 13.8338"
              fill="#2C78F6"/>
        <path fill-rule="evenodd" clip-rule="evenodd"
              d="M43.9877 21.4483C42.0902 22.1401 40.3801 23.0111 38.3832 22.7485C33.0056 22.0408 30.3538 18.5614 30.6722 12.5576C30.9433 7.45115 34.093 4.44389 39.319 4.35191C41.2218 4.31875 43.1277 4.42652 45.0285 4.37355C46.6793 4.32749 47.5743 5.06451 47.566 6.68427C47.5402 11.9799 47.6257 17.2841 47.3361 22.567C47.1239 26.4432 44.649 29.1454 41.1694 30.1048C38.0704 30.9589 34.0143 29.5296 32.0927 26.8853C31.5076 26.0797 30.758 25.1418 31.4709 24.1908C32.9902 22.1642 33.9004 23.745 34.8607 24.9103C36.4656 26.8581 38.5026 27.3839 40.8548 26.5386C43.188 25.6994 44.0911 23.9408 43.9877 21.4483L43.9877 21.4483ZM39.0174 7.70424C35.8683 7.70388 34.0175 9.77381 33.9317 13.3914C33.8487 16.8852 35.9932 19.3962 39.0407 19.3735C42.0537 19.3504 44.0688 17.0639 44.1209 13.6067C44.1772 9.90612 42.2734 7.70423 39.0174 7.70424Z"
              fill="#2C78F6"/>
        <path fill-rule="evenodd" clip-rule="evenodd"
              d="M78.0241 6.5256C83.1522 3.62737 86.5198 3.61963 89.6888 6.33984C93.4433 9.56324 94.7492 15.1685 92.9138 20.183C91.2483 24.733 87.7536 27.1753 82.8943 27.1683C80.9915 27.166 79.0865 27.0832 77.1853 27.1369C75.4335 27.1855 74.4679 26.3856 74.4732 24.6776C74.4954 17.3959 74.5713 10.1144 74.6515 2.83301C74.6643 1.66155 75.0565 0.610193 76.4658 0.674397C77.7178 0.731615 78.0413 1.71436 78.0517 2.79831C78.0632 3.9544 78.0365 5.11039 78.0241 6.52562L78.0241 6.5256ZM84.1768 23.6666C87.5179 23.6287 90.3485 19.9691 90.3875 15.6364C90.3889 15.4712 90.3871 15.3053 90.3808 15.1405C90.2417 11 87.504 7.73436 84.1812 7.74496C80.9911 7.75535 78.2408 10.9411 77.9852 14.9251C77.9751 15.0898 77.9814 15.2553 77.98 15.4209C77.8818 19.8556 80.7838 23.7065 84.1768 23.6666"
              fill="#2C78F6"/>
        <path fill-rule="evenodd" clip-rule="evenodd"
              d="M19.2674 19.3611C19.1641 27.887 20.0942 26.5393 10.8989 26.5282C5.63097 26.5221 1.78002 23.4164 0.498885 18.3216C-0.798989 13.1626 1.43205 7.08081 5.46337 4.78994C10.4137 1.97678 16.2108 4.46723 18.3976 10.2919C19.5086 13.2509 19.3015 16.3076 19.2674 19.3611ZM9.90335 7.10294C6.53218 6.98932 3.65326 10.3227 3.45793 14.5656C3.25876 18.8972 6.079 22.8423 9.49373 23.0102C12.8703 23.176 15.8707 19.3899 15.8901 14.9385C15.9085 10.6409 13.2932 7.21745 9.90335 7.10294Z"
              fill="#2C78F6"/>
        <path fill-rule="evenodd" clip-rule="evenodd"
              d="M51.5094 15.9167C51.4749 13.0907 52.1337 10.6532 53.5646 8.43345C57.1689 2.8425 64.8667 2.82426 68.5063 8.40059C71.4735 12.9462 71.1859 19.5484 67.8359 23.7856C63.5614 29.1927 55.3744 27.7225 52.5557 21.0312C51.8426 19.3398 51.423 17.5747 51.5094 15.9167ZM61.3375 7.55588C57.9185 7.38162 55.1144 10.5272 54.7948 14.8946C54.4856 19.1225 57.276 23.1662 60.6968 23.4465C63.9758 23.7158 67.0255 20.1008 67.1926 15.7482C67.3616 11.3339 64.787 7.73165 61.3375 7.55588Z"
              fill="#2C78F6"/>
        <path d="M149.759 6.38841C149.768 5.43546 149.995 4.55283 150.441 3.74053C150.891 2.92826 151.508 2.29201 152.29 1.83178C153.077 1.36686 153.924 1.13836 154.83 1.14628C155.735 1.15419 156.575 1.39743 157.35 1.87598C158.124 2.34982 158.727 2.99673 159.159 3.8167C159.595 4.63671 159.809 5.5232 159.801 6.47614C159.792 7.4055 159.573 8.27404 159.141 9.08175C158.709 9.88946 158.1 10.5376 157.312 11.0261C156.53 11.5099 155.671 11.7477 154.737 11.7396C153.808 11.7314 152.954 11.481 152.175 10.9883C151.401 10.4908 150.802 9.83453 150.38 9.01936C149.958 8.20418 149.751 7.3272 149.759 6.38841ZM150.573 6.39552C150.566 7.20694 150.748 7.96104 151.119 8.65782C151.491 9.34988 151.998 9.89451 152.641 10.2917C153.288 10.689 153.99 10.8909 154.744 10.8975C155.504 10.9041 156.211 10.7121 156.865 10.3216C157.52 9.92625 158.034 9.38818 158.408 8.70735C158.787 8.02656 158.98 7.28045 158.987 6.46903C158.994 5.66233 158.814 4.91768 158.447 4.2351C158.085 3.54784 157.58 3.00558 156.933 2.60834C156.285 2.20637 155.582 2.00207 154.822 1.99544C154.067 1.98884 153.363 2.17848 152.708 2.56435C152.054 2.9455 151.535 3.47881 151.152 4.16428C150.773 4.84978 150.58 5.59353 150.573 6.39552ZM153.739 6.95394L153.718 9.34575L152.72 9.33703L152.772 3.32921L154.726 3.34628C155.447 3.35258 156.005 3.51315 156.399 3.82797C156.797 4.13812 156.993 4.58804 156.988 5.17773C156.983 5.75799 156.677 6.1988 156.071 6.50017C156.644 6.74108 156.93 7.2248 156.929 7.95135L156.925 8.38301C156.921 8.78872 156.959 9.08156 157.038 9.26152L157.037 9.37474L156.01 9.36578C155.946 9.19537 155.916 8.89316 155.919 8.45914C155.923 8.02041 155.918 7.76088 155.905 7.68056C155.833 7.22701 155.526 6.98843 154.984 6.96482L153.739 6.95394ZM153.747 6.04817L154.85 6.05782C155.19 6.05135 155.465 5.97118 155.673 5.81732C155.882 5.66345 155.988 5.45914 155.99 5.20439C155.993 4.86001 155.903 4.61625 155.721 4.47312C155.538 4.32527 155.211 4.24928 154.739 4.24516L153.762 4.23663L153.747 6.04817Z"
              fill="#2C78F6"/>
    </g>
    <defs>
        <clipPath id="clip0">
            <rect x="0.262207" width="159.836" height="30.01" transform="rotate(0.50061 0.262207 0)" fill="white"/>
        </clipPath>
    </defs>
</svg>
