<?xml version="1.0" encoding="UTF-8" standalone="no"?>
<!-- Created with Inkscape (http://www.inkscape.org/) -->

<svg
        xmlns:dc="http://purl.org/dc/elements/1.1/"
        xmlns:cc="http://creativecommons.org/ns#"
        xmlns:rdf="http://www.w3.org/1999/02/22-rdf-syntax-ns#"
        xmlns:sodipodi="http://sodipodi.sourceforge.net/DTD/sodipodi-0.dtd"
        xmlns:inkscape="http://www.inkscape.org/namespaces/inkscape"
        xmlns="http://www.w3.org/2000/svg"
        width="191.28911mm"
        height="46.009243mm"
        viewBox="0 0 191.2891 46.009244"
        version="1.1"
        id="svg376"
        inkscape:version="0.92.3 (2405546, 2018-03-11)"
        sodipodi:docname="algobulls_logo_with_tagline.svg"
        inkscape:export-filename="/home/pushpak/Documents/algobulls/logo/latestcolour/algobulls_logo_with_tagline_1024px_width.png"
        inkscape:export-xdpi="135.8075"
        inkscape:export-ydpi="135.8075">
    <defs
            id="defs370"/>
    <sodipodi:namedview
            id="base"
            pagecolor="#ffffff"
            bordercolor="#666666"
            borderopacity="1.0"
            inkscape:pageopacity="0.0"
            inkscape:pageshadow="2"
            inkscape:zoom="0.7"
            inkscape:cx="202.8548"
            inkscape:cy="-90.273542"
            inkscape:document-units="mm"
            inkscape:current-layer="layer1"
            showgrid="false"
            inkscape:window-width="1853"
            inkscape:window-height="1025"
            inkscape:window-x="67"
            inkscape:window-y="27"
            inkscape:window-maximized="1"
            inkscape:pagecheckerboard="false"
            fit-margin-top="0"
            fit-margin-left="0"
            fit-margin-right="0"
            fit-margin-bottom="0"/>
    <metadata
            id="metadata373">
        <rdf:RDF>
            <cc:Work
                    rdf:about="">
                <dc:format>image/svg+xml</dc:format>
                <dc:type
                        rdf:resource="http://purl.org/dc/dcmitype/StillImage"/>
                <dc:title></dc:title>
            </cc:Work>
        </rdf:RDF>
    </metadata>
    <g
            inkscape:label="Layer 1"
            inkscape:groupmode="layer"
            id="layer1"
            transform="translate(-69.714372,168.19999)">
        <text
                xml:space="preserve"
                style="font-style:normal;font-weight:normal;font-size:10.58333302px;line-height:1.25;font-family:sans-serif;letter-spacing:0px;word-spacing:0px;fill:#1f7ae0;fill-opacity:0.94117647;stroke:none;stroke-width:0.26458332"
                x="78.854652"
                y="-123.95187"
                id="text827"><tspan
         sodipodi:role="line"
         id="tspan825"
         x="78.854652"
         y="-123.95187"
         style="font-size:8.46666622px;fill:#1f7ae0;fill-opacity:0.94117647;stroke-width:0.26458332">Trading meets Automation &amp; Intelligence</tspan></text>
        <g
                id="g873"
                transform="translate(-17.008928,3.4017857)">
            <path
                    d="m 223.85846,-153.24436 c 0,3.27085 -0.0103,6.54244 0.003,9.81417 0.0103,2.38235 -0.86089,3.73125 -3.5352,3.51728 -3.14631,-0.25113 -6.33888,0.33836 -9.45979,-0.5704 -4.38404,-1.2768 -7.08493,-4.49889 -7.20477,-9.05652 -0.12659,-4.75486 -0.0496,-9.5156 -0.0483,-14.27384 7.9e-4,-1.3326 0.0715,-2.77579 1.81004,-2.88402 1.95073,-0.12116 2.17219,1.43995 2.19099,2.86199 0.0565,4.36113 -0.0159,8.72388 0.0416,13.08575 0.0542,4.14628 2.31509,6.59912 5.97805,6.62776 3.79529,0.0304 6.0979,-2.4994 6.12653,-6.80047 0.0288,-4.26288 0.007,-8.52533 0.006,-12.78895 -8e-4,-1.47578 0.18431,-3.01531 2.04692,-2.98829 1.83368,0.0276 2.03151,1.58946 2.03856,3.04616 0.0175,3.46925 0.006,6.9391 0.006,10.40938"
                    style="fill:#1f7ae0;fill-opacity:0.94117647;fill-rule:evenodd;stroke:none;stroke-width:1.46859264"
                    id="path275-3"
                    inkscape:connector-curvature="0"/>
            <path
                    d="m 256.1653,-139.87517 c -4.53252,0.0429 -8.29755,-2.11889 -9.71459,-5.51207 -0.5425,-1.29926 -0.84298,-2.62893 0.61196,-3.36278 1.44113,-0.72652 2.33212,0.2755 3.08801,1.48034 2.04149,3.25205 6.17249,4.33602 9.51575,2.55271 1.28208,-0.68437 2.32037,-1.64644 2.27837,-3.20594 -0.0458,-1.66935 -1.10658,-2.75963 -2.60778,-3.26366 -1.10849,-0.37272 -2.30789,-0.54132 -3.48012,-0.63913 -2.22595,-0.18563 -4.27038,-0.79304 -6.04708,-2.1813 -3.549,-2.77461 -3.76503,-7.47631 -0.49051,-10.57724 3.81202,-3.60966 10.74378,-3.25088 14.14945,0.74722 0.3789,0.44469 0.71564,0.94621 0.97089,1.47035 0.64735,1.32923 1.05107,2.78005 -0.59992,3.59805 -1.52235,0.7531 -2.38294,-0.37625 -2.96113,-1.61559 -1.36579,-2.92985 -3.88604,-3.15102 -6.54243,-2.63936 -1.72178,0.33264 -3.1447,1.31924 -3.13882,3.39451 0.006,1.91783 1.29706,2.76462 2.90605,3.28127 0.46583,0.14936 0.95869,0.23307 1.44494,0.2993 0.48963,0.067 0.98954,0.0545 1.48079,0.11117 5.18002,0.59067 9.19838,4.20943 9.09484,8.18007 -0.11117,4.22455 -4.66968,7.83259 -9.95867,7.88208"
                    style="fill:#1f7ae0;fill-opacity:0.94117647;fill-rule:evenodd;stroke:none;stroke-width:1.46859264"
                    id="path277-6"
                    inkscape:connector-curvature="0"/>
            <path
                    d="m 241.25541,-155.86286 c 10e-4,4.26289 -0.015,8.52562 0.0103,12.78895 0.009,1.54951 -0.43925,3.00063 -2.10655,3.02603 -1.60399,0.0259 -1.92694,-1.57653 -1.93399,-2.86654 -0.0479,-8.723 -0.0396,-17.44777 -0.001,-26.17209 0.006,-1.25462 0.46246,-2.48016 1.97248,-2.51438 1.7159,-0.0391 2.05853,1.22848 2.05853,2.65096 -8e-4,4.36275 -8e-4,8.72476 7.9e-4,13.08707"
                    style="fill:#1f7ae0;fill-opacity:0.94117647;fill-rule:evenodd;stroke:none;stroke-width:1.46859264"
                    id="path279-7"
                    inkscape:connector-curvature="0"/>
            <path
                    d="m 114.41145,-155.99988 c 0,-4.26362 0.001,-8.52694 -0.001,-12.79012 -5.3e-4,-1.37842 0.18945,-2.73628 1.91416,-2.80002 1.7043,-0.0621 2.13475,1.27224 2.13974,2.6376 0.0329,8.72476 0.0333,17.45025 -0.008,26.17458 -0.007,1.37416 -0.60065,2.76785 -2.14297,2.72086 -1.56449,-0.0479 -1.89918,-1.47462 -1.90006,-2.85583 -0.003,-4.36275 -0.001,-8.72461 -0.001,-13.08707"
                    style="fill:#1f7ae0;fill-opacity:0.94117647;fill-rule:evenodd;stroke:none;stroke-width:1.46859264"
                    id="path281-5"
                    inkscape:connector-curvature="0"/>
            <path
                    d="m 228.56428,-156.27964 c -7.9e-4,-4.05626 -0.015,-8.11398 0.007,-12.17155 0.007,-1.38254 -0.1216,-3.02354 1.85072,-3.1168 1.97496,-0.0932 2.07865,1.49988 2.08276,2.91486 0.0238,8.51035 0.0147,17.02143 0.006,25.53134 -0.001,1.48578 -0.36715,3.07553 -2.07365,3.04439 -1.76173,-0.0317 -1.86908,-1.71135 -1.87084,-3.13882 -0.006,-4.35496 -0.003,-8.70846 -0.003,-13.06342"
                    style="fill:#1f7ae0;fill-opacity:0.94117647;fill-rule:evenodd;stroke:none;stroke-width:1.46859264"
                    id="path283-3"
                    inkscape:connector-curvature="0"/>
            <path
                    d="m 139.29205,-146.38339 c -2.26427,0.84797 -4.30239,1.90859 -6.6956,1.61516 -6.44507,-0.79098 -9.656,-4.92845 -9.33761,-12.11912 0.2711,-6.11581 4.01028,-9.74881 10.26546,-9.91359 2.2775,-0.0596 4.56013,0.0495 6.83513,-0.0338 1.97569,-0.0724 3.05481,0.80053 3.06187,2.73966 0.0245,6.33976 0.18225,12.68864 -0.10912,19.01592 -0.21354,4.64252 -3.14793,7.90323 -7.30346,9.08809 -3.70085,1.05489 -8.57144,-0.61372 -10.89945,-3.75915 -0.70889,-0.95826 -1.61604,-2.07322 -0.77263,-3.21916 1.79756,-2.44197 2.9037,-0.55909 4.0655,0.82594 1.94163,2.31494 4.38566,2.92308 7.19273,1.88655 2.78431,-1.02904 3.84698,-3.14381 3.69718,-6.12653 z m -6.09378,-16.40124 v 0 c -3.76987,0.0325 -5.9638,2.5298 -6.02871,6.86141 -0.0629,4.18329 2.53067,7.16688 6.17866,7.10784 3.60671,-0.0592 5.99509,-2.81749 6.02123,-6.95672 0.0288,-4.4306 -2.27338,-7.0466 -6.17118,-7.01253"
                    style="fill:#1f7ae0;fill-opacity:0.94117647;fill-rule:evenodd;stroke:none;stroke-width:1.46859264"
                    id="path285-5"
                    inkscape:connector-curvature="0"/>
            <path
                    d="m 179.8816,-164.60333 c 6.10861,-3.52316 10.14005,-3.56766 13.96206,-0.34439 4.52841,3.81952 6.15032,10.51601 4.00559,16.53812 -1.94618,5.46434 -6.10421,8.42458 -11.92145,8.46702 -2.27794,0.0172 -4.55925,-0.062 -6.83468,0.0222 -2.09657,0.0765 -3.26087,-0.87103 -3.27247,-2.91575 -0.0496,-8.71727 -0.0349,-17.43484 -0.015,-26.1524 0.003,-1.40251 0.46158,-2.6652 2.14929,-2.60308 1.49943,0.0554 1.89698,1.22847 1.92077,2.52598 0.0259,1.38385 0.006,2.768 0.006,4.46232 z m 7.5449,20.45544 v 0 c 3.99927,-0.0803 7.34957,-4.49096 7.35089,-9.67803 0,-0.19782 -0.004,-0.39637 -0.0132,-0.59361 -0.20986,-4.95517 -3.52139,-8.83593 -7.49907,-8.78849 -3.81878,0.0458 -7.07788,3.88824 -7.34223,8.66029 -0.0103,0.19723 -0.001,0.39534 -0.001,0.5936 -0.0712,5.30985 3.44312,9.8895 7.50451,9.80624"
                    style="fill:#1f7ae0;fill-opacity:0.94117647;fill-rule:evenodd;stroke:none;stroke-width:1.46859264"
                    id="path287-6"
                    inkscape:connector-curvature="0"/>
            <path
                    d="m 109.67729,-148.62358 c -0.0345,10.2076 1.06488,8.58451 -9.943103,8.66734 -6.306431,0.0479 -10.948946,-3.62977 -12.535907,-9.71547 -1.607669,-6.16236 0.999524,-13.46626 5.801528,-16.25086 5.896694,-3.41947 12.862522,-0.49874 15.541382,6.45123 1.36094,3.53065 1.14491,7.19199 1.1361,10.84776 z m -11.338119,-14.57651 v 0 c -4.036868,-0.10075 -7.448409,3.91982 -7.637857,9.00115 -0.19312,5.18751 3.224295,9.88069 7.313885,10.04605 4.043921,0.16316 7.596151,-4.40064 7.572801,-9.72972 -0.0229,-5.14492 -3.18964,-9.21586 -7.248829,-9.31748"
                    style="fill:#1f7ae0;fill-opacity:0.94117647;fill-rule:evenodd;stroke:none;stroke-width:1.46859264"
                    id="path289-2"
                    inkscape:connector-curvature="0"/>
            <path
                    d="m 148.23857,-153.08413 c -0.0708,-3.38276 0.6923,-6.30761 2.38206,-8.97986 4.25627,-6.73071 13.47125,-6.83307 17.88658,-0.19562 3.59966,5.41059 3.32445,13.3172 -0.64163,18.42467 -5.06048,6.51762 -14.8767,4.84327 -18.32099,-3.1375 -0.87131,-2.0174 -1.39208,-4.12601 -1.30602,-6.11169 z m 11.67796,-10.11171 v 0 c -4.09473,-0.17285 -7.41875,3.62214 -7.75564,8.85371 -0.32588,5.06459 3.05687,9.87614 7.15484,10.17588 3.92819,0.28814 7.54122,-4.07138 7.69572,-9.28371 0.15611,-5.2862 -2.96362,-9.57155 -7.09492,-9.74588"
                    style="fill:#1f7ae0;fill-opacity:0.94117647;fill-rule:evenodd;stroke:none;stroke-width:1.46859264"
                    id="path291-9"
                    inkscape:connector-curvature="0"/>
            <text
                    id="text825-1"
                    y="-160.94177"
                    x="265.52219"
                    style="font-style:normal;font-weight:normal;font-size:14.49290466px;line-height:1.25;font-family:sans-serif;letter-spacing:0px;word-spacing:0px;fill:#1f7ae0;fill-opacity:0.94117647;stroke:none;stroke-width:0.36232263"
                    xml:space="preserve"><tspan
           style="fill:#1f7ae0;fill-opacity:0.94117647;stroke-width:0.36232263"
           y="-160.94177"
           x="265.52219"
           id="tspan823-2"
           sodipodi:role="line">®</tspan></text>
        </g>
    </g>
</svg>
