<?xml version="1.0" encoding="UTF-8" standalone="no"?>
<svg
        xmlns:dc="http://purl.org/dc/elements/1.1/"
        xmlns:cc="http://creativecommons.org/ns#"
        xmlns:rdf="http://www.w3.org/1999/02/22-rdf-syntax-ns#"
        xmlns:sodipodi="http://sodipodi.sourceforge.net/DTD/sodipodi-0.dtd"
        xmlns:inkscape="http://www.inkscape.org/namespaces/inkscape"
        xmlns="http://www.w3.org/2000/svg"
        width="300"
        height="56.604919"
        viewBox="0 0 300 56.604919"
        fill="none"
        version="1.1"
        id="svg29"
        sodipodi:docname="logo_large.svg"
        inkscape:version="1.0.2 (394de47547, 2021-03-26)">
    <metadata
            id="metadata33">
        <rdf:RDF>
            <cc:Work
                    rdf:about="">
                <dc:format>image/svg+xml</dc:format>
                <dc:type
                        rdf:resource="http://purl.org/dc/dcmitype/StillImage"/>
                <dc:title></dc:title>
            </cc:Work>
        </rdf:RDF>
    </metadata>
    <sodipodi:namedview
            pagecolor="#ffffff"
            bordercolor="#666666"
            borderopacity="1"
            objecttolerance="10"
            gridtolerance="10"
            guidetolerance="10"
            inkscape:pageopacity="0"
            inkscape:pageshadow="2"
            inkscape:window-width="1848"
            inkscape:window-height="1016"
            id="namedview31"
            showgrid="false"
            fit-margin-top="0"
            fit-margin-left="0"
            fit-margin-right="0"
            fit-margin-bottom="0"
            inkscape:zoom="5.8588848"
            inkscape:cx="159.77008"
            inkscape:cy="67.084744"
            inkscape:window-x="72"
            inkscape:window-y="27"
            inkscape:window-maximized="1"
            inkscape:current-layer="svg29"
            inkscape:document-rotation="0"/>
    <defs
            id="defs27">
        <clipPath
                id="clip0">
            <rect
                    x="0.262207"
                    width="159.836"
                    height="30.01"
                    transform="rotate(0.50061,0.262207,0)"
                    fill="#ffffff"
                    id="rect24"
                    y="0"/>
        </clipPath>
    </defs>
    <g
            clip-path="url(#clip0)"
            id="g878"
            transform="matrix(1.8788619,0,0,1.8788619,-0.24254162,-0.42210597)">
        <path
                fill-rule="evenodd"
                clip-rule="evenodd"
                d="m 114.674,16.3341 c -0.024,2.732 -0.056,5.4646 -0.069,8.1975 -0.009,1.99 -0.746,3.1104 -2.979,2.9121 -2.626,-0.2327 -5.297,0.2364 -7.897,-0.5454 -3.652,-1.0985 -5.8849,-3.8096 -5.9518,-7.6173 -0.071,-3.9726 0.028,-7.9485 0.0639,-11.92297 C 97.8515,6.24495 97.921,5.04 99.374,4.96229 c 1.63,-0.08697 1.804,1.21861 1.809,2.40655 0.016,3.64316 -0.077,7.28676 -0.061,10.93046 0.015,3.4637 1.886,5.529 4.945,5.5797 3.17,0.0531 5.112,-2.0432 5.167,-5.6356 0.056,-3.5604 0.068,-7.1209 0.099,-10.68223 0.01,-1.23269 0.176,-2.51728 1.731,-2.48111 1.532,0.03643 1.686,1.34246 1.681,2.55926 -0.011,2.89788 -0.046,5.79608 -0.071,8.69478"
                fill="#2c78f6"
                id="path858"/>
        <path
                fill-rule="evenodd"
                clip-rule="evenodd"
                d="m 141.561,27.737 c -3.786,0.0027 -6.915,-1.8304 -8.074,-4.675 -0.444,-1.0892 -0.685,-2.2021 0.536,-2.8044 1.209,-0.5963 1.946,0.2471 2.568,1.259 1.682,2.7313 5.124,3.6668 7.93,2.2017 1.076,-0.5623 1.95,-1.3583 1.927,-2.6612 -0.027,-1.3947 -0.905,-2.3132 -2.155,-2.7451 -0.923,-0.3194 -1.924,-0.469 -2.902,-0.5593 -1.858,-0.1713 -3.561,-0.6935 -5.035,-1.8661 -2.944,-2.3435 -3.09,-6.27226 -0.333,-8.83849 3.211,-2.98724 8.998,-2.63697 11.814,0.7274 0.313,0.37421 0.59,0.79557 0.8,1.23524 0.531,1.11495 0.857,2.32975 -0.528,3.00095 -1.277,0.618 -1.987,-0.3316 -2.461,-1.371 -1.12,-2.45724 -3.223,-2.66038 -5.446,-2.25239 -1.44,0.26528 -2.636,1.07899 -2.646,2.81249 -0.009,1.6019 1.063,2.3186 2.403,2.7619 0.388,0.1282 0.799,0.2017 1.205,0.2606 0.408,0.0595 0.826,0.0527 1.236,0.1036 4.322,0.5312 7.653,3.5832 7.537,6.899 -0.124,3.5279 -3.958,6.5083 -8.376,6.5111"
                fill="#2c78f6"
                id="path860"/>
        <path
                fill-rule="evenodd"
                clip-rule="evenodd"
                d="m 129.224,14.2737 c -0.03,3.5606 -0.075,7.1211 -0.085,10.6823 -0.004,1.2944 -0.389,2.5032 -1.781,2.5122 -1.34,0.01 -1.599,-1.3309 -1.595,-2.4084 0.024,-7.2865 0.094,-14.574 0.19,-21.86098 0.014,-1.04791 0.405,-2.06824 1.666,-2.0858 1.434,-0.02013 1.711,1.04114 1.7,2.22931 -0.032,3.64409 -0.064,7.28757 -0.095,10.93137"
                fill="#2c78f6"
                id="path862"/>
        <path
                fill-rule="evenodd"
                clip-rule="evenodd"
                d="M 23.2755,13.2338 C 23.3066,9.67249 23.3387,6.11146 23.3677,2.5505 23.3774,1.39914 23.5459,0.266327 24.987,0.225674 26.411,0.186241 26.7608,1.30393 26.755,2.44442 26.7188,9.73224 26.6555,17.0204 26.557,24.3074 c -0.0159,1.1477 -0.5219,2.3075 -1.8098,2.257 -1.3065,-0.0514 -1.5756,-1.2456 -1.5663,-2.3993 0.0292,-3.6441 0.0627,-7.2874 0.0945,-10.9313"
                fill="#2c78f6"
                id="path864"/>
        <path
                fill-rule="evenodd"
                clip-rule="evenodd"
                d="m 118.627,13.8329 c 0.029,-3.3881 0.046,-6.77756 0.094,-10.16659 0.016,-1.15475 -0.079,-2.52638 1.569,-2.58988 1.65,-0.06344 1.725,1.26798 1.718,2.44991 -0.042,7.10866 -0.112,14.21766 -0.181,21.32576 -0.012,1.241 -0.329,2.5662 -1.754,2.5278 -1.472,-0.0394 -1.549,-1.4431 -1.54,-2.6355 0.027,-3.6376 0.061,-7.274 0.093,-10.9115"
                fill="#2c78f6"
                id="path866"/>
        <path
                fill-rule="evenodd"
                clip-rule="evenodd"
                d="m 43.9875,21.4483 c -1.8975,0.6918 -3.6077,1.5628 -5.6045,1.3002 -5.3777,-0.7077 -8.0295,-4.1871 -7.711,-10.1909 0.271,-5.10645 3.4208,-8.11371 8.6468,-8.20569 1.9028,-0.03316 3.8086,0.07461 5.7095,0.02164 1.6508,-0.04606 2.5457,0.69096 2.5375,2.31072 -0.0258,5.29563 0.0596,10.59983 -0.2299,15.88273 -0.2123,3.8762 -2.6871,6.5784 -6.1668,7.5378 -3.0989,0.8541 -7.155,-0.5752 -9.0766,-3.2195 -0.5851,-0.8056 -1.3347,-1.7435 -0.6219,-2.6945 1.5193,-2.0266 2.4295,-0.4458 3.3898,0.7195 1.6049,1.9478 3.6419,2.4736 5.9942,1.6283 2.3332,-0.8392 3.2362,-2.5978 3.1329,-5.0903 z M 39.0172,7.70424 c -3.1492,-3.6e-4 -4.9999,2.06957 -5.0858,5.68716 -0.083,3.4938 2.0616,6.0048 5.1091,5.9821 3.013,-0.0231 5.0281,-2.3096 5.0801,-5.7668 C 44.177,9.90612 42.2732,7.70423 39.0172,7.70424"
                fill="#2c78f6"
                id="path868"/>
        <path
                fill-rule="evenodd"
                clip-rule="evenodd"
                d="m 78.0238,6.52512 c 5.1281,-2.89823 8.4958,-2.90598 11.6647,-0.18577 3.7546,3.22341 5.0605,8.82865 3.2251,13.84315 -1.6655,4.55 -5.1602,6.9923 -10.0195,6.9853 -1.9029,-0.0023 -3.8078,-0.0851 -5.709,-0.0314 -1.7518,0.0486 -2.7174,-0.7513 -2.7122,-2.4593 0.0222,-7.2817 0.0981,-14.5632 0.1784,-21.84458 0.0127,-1.17146 0.405,-2.222816 1.8142,-2.158611 1.2521,0.057218 1.5756,1.039961 1.586,2.123911 0.0115,1.15609 -0.0152,2.31208 -0.0276,3.72731 z m 6.1528,17.14098 c 3.3411,-0.0379 6.1717,-3.6975 6.2107,-8.0302 0.0014,-0.1652 -5e-4,-0.3311 -0.0067,-0.4959 -0.1392,-4.1404 -2.8769,-7.40612 -6.1997,-7.39553 -3.1901,0.01039 -5.9403,3.19613 -6.196,7.18013 -0.01,0.1647 -0.0037,0.3302 -0.0052,0.4958 -0.0982,4.4347 2.8038,8.2856 6.1968,8.2457"
                fill="#2c78f6"
                id="path870"/>
        <path
                fill-rule="evenodd"
                clip-rule="evenodd"
                d="M 19.2672,19.3601 C 19.1639,27.886 20.094,26.5383 10.8987,26.5272 5.63072,26.5212 1.77978,23.4154 0.498641,18.3206 -0.799233,13.1616 1.4318,7.07983 5.46313,4.78897 10.4135,1.9758 16.2105,4.46626 18.3974,10.291 c 1.111,2.959 0.9038,6.0156 0.8698,9.0691 z M 9.9031,7.10196 C 6.53194,6.98835 3.65301,10.3217 3.45768,14.5647 c -0.19916,4.3316 2.62107,8.2766 6.0358,8.4446 3.37662,0.1658 6.37702,-3.6203 6.39642,-8.0718 0.0184,-4.2976 -2.597,-7.72103 -5.9868,-7.83554"
                fill="#2c78f6"
                id="path872"/>
        <path
                fill-rule="evenodd"
                clip-rule="evenodd"
                d="M 51.5094,15.9158 C 51.4749,13.0897 52.1337,10.6522 53.5646,8.43247 57.1689,2.84153 64.8667,2.82328 68.5063,8.39961 71.4735,12.9452 71.1859,19.5474 67.8359,23.7846 63.5614,29.1917 55.3744,27.7215 52.5557,21.0302 51.8426,19.3388 51.423,17.5737 51.5094,15.9158 Z m 9.8281,-8.3609 c -3.419,-0.17426 -6.2231,2.9714 -6.5427,7.3387 -0.3092,4.228 2.4812,8.2716 5.902,8.5519 3.279,0.2693 6.3287,-3.3457 6.4958,-7.6983 0.169,-4.4143 -2.4056,-8.01653 -5.8551,-8.1923 z"
                fill="#2c78f6"
                id="path874"/>
        <path
                d="m 149.759,6.38743 c 0.008,-0.95295 0.235,-1.83557 0.681,-2.64788 0.451,-0.81226 1.067,-1.44851 1.85,-1.90875 0.787,-0.46491 1.633,-0.69341 2.539,-0.6855 0.906,0.00791 1.746,0.25115 2.52,0.72971 0.775,0.47384 1.378,1.12074 1.809,1.94072 0.436,0.82001 0.65,1.70649 0.642,2.65944 -0.008,0.92936 -0.228,1.79789 -0.66,2.6056 -0.431,0.80771 -1.041,1.45583 -1.828,1.94433 -0.783,0.4838 -1.641,0.7216 -2.575,0.7135 -0.93,-0.0081 -1.784,-0.2586 -2.563,-0.7513 -0.774,-0.4974 -1.372,-1.15375 -1.794,-1.96892 -0.422,-0.81517 -0.629,-1.69216 -0.621,-2.63095 z m 0.814,0.00711 c -0.008,0.81142 0.175,1.56552 0.546,2.2623 0.371,0.69206 0.878,1.2367 1.521,1.63386 0.648,0.3973 1.349,0.5992 2.104,0.6058 0.76,0.0066 1.467,-0.1853 2.121,-0.5759 0.655,-0.39533 1.169,-0.9334 1.543,-1.61423 0.378,-0.68079 0.571,-1.42689 0.578,-2.23831 0.007,-0.80671 -0.172,-1.55135 -0.539,-2.23394 -0.362,-0.68726 -0.867,-1.22951 -1.515,-1.62676 -0.647,-0.40196 -1.351,-0.60626 -2.11,-0.6129 -0.755,-0.00659 -1.46,0.18304 -2.114,0.56891 -0.655,0.38115 -1.173,0.91446 -1.557,1.59993 -0.379,0.68551 -0.571,1.42925 -0.578,2.23124 z m 3.165,0.55843 -0.021,2.3918 -0.998,-0.00872 0.053,-6.00781 1.953,0.01706 c 0.722,0.00631 1.279,0.16687 1.673,0.48169 0.398,0.31015 0.595,0.76007 0.59,1.34976 -0.005,0.58026 -0.311,1.02108 -0.918,1.32244 0.574,0.24091 0.86,0.72464 0.858,1.45118 l -0.004,0.43166 c -0.003,0.40571 0.034,0.69855 0.113,0.87852 L 157.036,9.37377 156.01,9.3648 c -0.065,-0.17041 -0.095,-0.47262 -0.091,-0.90663 0.004,-0.43874 -0.001,-0.69827 -0.015,-0.77859 -0.071,-0.45354 -0.378,-0.69212 -0.92,-0.71573 z m 0.008,-0.90578 1.104,0.00965 c 0.34,-0.00647 0.614,-0.08663 0.823,-0.2405 0.209,-0.15387 0.314,-0.35817 0.317,-0.61292 0.003,-0.34438 -0.087,-0.58814 -0.27,-0.73128 -0.183,-0.14785 -0.51,-0.22384 -0.982,-0.22796 l -0.976,-0.00853 z"
                fill="#2c78f6"
                id="path876"/>
    </g>
</svg>
