<svg width="84" height="100" viewBox="0 0 84 100" fill="none" xmlns="http://www.w3.org/2000/svg">
<path fill-rule="evenodd" clip-rule="evenodd" d="M83.2695 68.2437C83.1444 105.433 87.1326 99.5198 47.1992 99.8215C24.3216 99.9961 7.48004 86.5971 1.72307 64.425C-4.10902 41.9736 5.34902 15.3631 22.7691 5.21796C44.1604 -7.24025 69.4301 3.4009 79.1481 28.7218C84.0852 41.5851 83.3015 54.9245 83.2695 68.2437V68.2437ZM42.1386 15.1368C27.4941 14.7698 15.1182 29.418 14.4309 47.9309C13.7304 66.8306 26.1276 83.9293 40.9633 84.5318C55.6333 85.1262 68.5196 68.4989 68.4349 49.0833C68.3518 30.3388 56.864 15.5071 42.1386 15.1368" fill="white"/>
</svg>
