<svg width="500" height="500" viewBox="0 0 500 500" fill="none" xmlns="http://www.w3.org/2000/svg">
    <path d="M247.999 492.86C382.596 492.86 491.709 431.93 491.709 356.77C491.709 281.609 382.596 220.68 247.999 220.68C113.402 220.68 4.28906 281.609 4.28906 356.77C4.28906 431.93 113.402 492.86 247.999 492.86Z" fill="#F5F5F5"/>
    <path d="M101.218 408.32C129.838 408.32 153.038 394.925 153.038 378.4C153.038 361.876 129.838 348.48 101.218 348.48C72.599 348.48 49.3984 361.876 49.3984 378.4C49.3984 394.925 72.599 408.32 101.218 408.32Z" fill="#E0E0E0"/>
    <path d="M118.19 347.998C118.09 341.148 121.41 300.148 121.41 300.148L101 309.868C103 334.708 104.69 346.558 104.63 348.568C104.529 348.892 104.478 349.229 104.48 349.568C104.27 354.088 109.48 356.818 113.57 360.058C117.016 362.912 120.695 365.471 124.57 367.708C127.57 369.318 133.73 369.788 134.57 367.958C129.65 363.958 123.95 359.628 120.1 355.178C118.29 352.998 118.27 352.758 118.19 347.998Z"
          fill="#F9A78D"/>
    <path d="M143.062 373.269C143.322 373.269 143.582 376.049 142.062 377.139C140.362 378.389 135.442 380.339 129.122 379.219C122.802 378.099 119.482 375.999 117.002 373.879C114.522 371.759 111.132 368.669 108.282 367.879C105.642 367.169 102.792 365.879 101.972 365.039C101.152 364.199 101.452 360.719 101.452 360.719L143.062 373.269Z"
          fill="black"/>
    <path d="M124.231 356.94C123.841 356.52 123.461 356.1 123.101 355.68C122.155 354.54 121.407 353.248 120.891 351.86C120.623 351.276 120.386 350.679 120.181 350.07C119.961 349.23 119.841 348.35 119.671 347.5C119.598 347.083 119.484 346.674 119.331 346.28C119.237 346.016 119.043 345.801 118.791 345.68C118.636 345.65 118.476 345.65 118.321 345.68C115.939 345.758 113.595 346.301 111.421 347.28C110.851 347.54 110.421 347.85 110.351 348.49C110.404 349.23 110.299 349.973 110.041 350.67C109.987 350.799 109.896 350.91 109.781 350.99C109.697 351.036 109.602 351.06 109.506 351.06C109.41 351.06 109.315 351.036 109.231 350.99C109.059 350.894 108.915 350.757 108.811 350.59C108.181 349.7 108.031 348.51 107.311 347.68C106.912 347.244 106.382 346.95 105.801 346.84C105.521 346.78 104.571 346.76 104.511 346.36L104.331 344.51C104.331 344.51 103.761 344.24 103.391 345.34C103.131 346.482 102.983 347.648 102.951 348.82C102.831 350.09 102.661 351.08 102.441 352.34C102.171 353.84 101.921 355.34 101.681 356.84C101.331 358.279 101.193 359.761 101.271 361.24C101.344 361.892 101.662 362.493 102.161 362.92C102.917 363.678 103.805 364.292 104.781 364.73C106.101 365.37 107.481 365.89 108.841 366.46C112.033 367.984 114.982 369.972 117.591 372.36C121.425 375.321 125.977 377.209 130.781 377.83C137.101 378.25 141.661 376.47 143.031 374.37C143.251 372.91 143.441 371.37 142.831 370.29C140.831 366.73 136.001 365.29 132.181 363.14C130.52 362.161 128.927 361.072 127.411 359.88C126.272 358.989 125.209 358.005 124.231 356.94Z"
          fill="#37474F"/>
    <path d="M120.572 366.18C120.685 366.247 120.817 366.275 120.947 366.259C121.078 366.242 121.199 366.183 121.292 366.09C124.052 363.38 129.292 361.77 131.012 362.39C131.012 362.39 130.802 361.55 129.012 361.04C129.012 361.04 124.422 360.6 119.882 364.91C119.817 364.973 119.767 365.05 119.737 365.136C119.707 365.221 119.697 365.312 119.707 365.402C119.718 365.492 119.749 365.578 119.798 365.654C119.848 365.73 119.914 365.794 119.992 365.84L120.572 366.18Z"
          fill="#FAFAFA"/>
    <path d="M126.69 359.258C124.79 358.538 120.19 360.558 117.92 362.768C117.829 362.865 117.705 362.925 117.572 362.936C117.439 362.947 117.306 362.909 117.2 362.828L116.63 362.398C116.568 362.348 116.517 362.284 116.482 362.211C116.448 362.138 116.43 362.059 116.43 361.978C116.43 361.898 116.448 361.818 116.482 361.745C116.517 361.673 116.568 361.609 116.63 361.558C117.91 360.378 121.63 357.368 125.17 357.858C125.13 357.858 126.55 358.558 126.69 359.258Z"
          fill="#FAFAFA"/>
    <path d="M123.103 355.681C121.733 355.371 118.103 356.131 115.103 358.491C115.044 358.536 114.977 358.568 114.905 358.585C114.833 358.601 114.758 358.602 114.686 358.587C114.613 358.572 114.545 358.541 114.486 358.497C114.427 358.453 114.378 358.396 114.343 358.331L114.083 357.811C114.027 357.709 114.01 357.591 114.034 357.477C114.058 357.364 114.121 357.262 114.213 357.191C115.213 356.371 118.763 353.881 122.083 354.321C122.537 354.676 122.889 355.146 123.103 355.681Z"
          fill="#FAFAFA"/>
    <path d="M134.518 364.301C126.628 365.971 123.588 371.021 122.148 375.171C124.848 376.544 127.77 377.427 130.778 377.781C137.098 378.201 141.658 376.421 143.028 374.321C143.248 372.861 143.438 371.321 142.828 370.241C141.238 367.381 137.788 365.891 134.518 364.301Z"
          fill="#FAFAFA"/>
    <path d="M85.9216 318.901L66.9216 316.211C67.2216 326.211 66.5716 339.551 66.1316 350.781C65.599 353.228 65.5008 355.75 65.8416 358.231C66.2316 360.391 62.8416 375.801 63.8416 380.301C65.2816 387.061 75.8416 384.951 76.2816 380.871C76.7216 376.791 77.9816 368.621 79.3616 357.871C80.4716 348.671 85.8316 319.541 85.9216 318.901Z"
          fill="#F9A78D"/>
    <path d="M78.699 383.429L72.369 369.299C70.599 368.299 68.499 366.299 66.529 367.399C65.8346 367.749 65.1919 368.193 64.619 368.719C63.149 370.179 63.009 372.289 62.619 374.189C62.229 376.089 60.829 377.829 60.529 379.799C59.959 383.509 59.809 385.859 60.799 389.269C61.789 392.679 65.109 394.609 68.419 395.579C71.189 396.389 74.709 395.649 76.249 393.289C78.159 390.319 78.569 387.419 78.699 383.429Z"
          fill="black"/>
    <path d="M78.6169 383.301C76.0669 379.861 63.7469 378.631 60.2969 381.721C60.2969 381.271 60.3869 380.781 60.4469 380.271C60.8024 376.905 61.5164 373.586 62.5769 370.371C63.2417 368.363 63.7532 366.307 64.1069 364.221C64.3769 362.071 64.6969 357.611 64.8369 356.091C64.8768 354.59 65.0171 353.093 65.2569 351.611C65.3669 351.171 65.4969 350.611 66.0769 350.781C66.0769 350.781 66.0769 351.521 65.9869 351.971C65.8969 352.421 65.9169 352.891 65.8869 353.281C65.8069 354.201 65.8069 355.031 65.7969 355.961C65.7713 356.316 65.812 356.672 65.9169 357.011C65.946 357.089 65.9985 357.155 66.0669 357.201C66.3269 357.311 66.3069 356.701 66.3269 356.581L66.7369 354.291C66.744 354.17 66.7896 354.055 66.8669 353.961C66.9349 353.894 67.0168 353.843 67.1069 353.811C69.0369 353.061 70.4669 352.421 72.4569 352.751C73.5653 352.915 74.6565 353.179 75.7169 353.541C76.4869 353.811 77.8569 354.241 78.2869 354.991C78.4456 355.357 78.4807 355.764 78.3869 356.151C78.2769 357.151 78.1369 358.341 77.9869 359.501C77.8169 360.901 79.5969 356.211 79.8969 353.561C80.6369 353.731 80.5469 354.561 79.8969 357.701C79.1209 361.646 78.6131 365.638 78.3769 369.651C78.1969 372.852 78.1969 376.06 78.3769 379.261C78.5169 380.681 78.5969 382.001 78.6169 383.301Z"
          fill="#37474F"/>
    <path d="M64.4696 375.54C68.4077 375.057 72.4039 375.471 76.1596 376.75C76.2103 376.771 76.2657 376.78 76.3206 376.775C76.3756 376.77 76.4283 376.751 76.4741 376.72C76.5199 376.689 76.5572 376.647 76.5826 376.598C76.608 376.549 76.6207 376.495 76.6196 376.44V375.35C76.6192 375.288 76.601 375.228 76.5673 375.177C76.5336 375.125 76.4858 375.085 76.4296 375.06C72.6749 373.463 68.5178 373.068 64.5296 373.93C64.4614 373.943 64.3989 373.977 64.3506 374.027C64.3023 374.077 64.2706 374.141 64.2596 374.21L64.1096 375.21C64.1078 375.256 64.1161 375.302 64.134 375.345C64.1519 375.388 64.1789 375.427 64.2131 375.458C64.2474 375.49 64.2881 375.513 64.3324 375.527C64.3767 375.541 64.4235 375.546 64.4696 375.54Z"
          fill="#FAFAFA"/>
    <path d="M65.618 370.119C69.1614 369.615 72.7752 370.103 76.058 371.529C76.1058 371.551 76.158 371.56 76.2102 371.556C76.2624 371.553 76.3129 371.536 76.3573 371.509C76.4017 371.481 76.4387 371.443 76.4649 371.398C76.4912 371.352 76.506 371.302 76.508 371.249V370.249C76.5062 370.191 76.4873 370.134 76.4535 370.086C76.4197 370.038 76.3726 370.001 76.318 369.979C75.378 369.559 72.058 367.579 65.668 368.649C65.6022 368.657 65.5405 368.685 65.4919 368.73C65.4433 368.775 65.4104 368.834 65.398 368.899L65.258 369.779C65.2564 369.826 65.2648 369.873 65.2826 369.916C65.3003 369.959 65.3272 369.998 65.3612 370.031C65.3953 370.063 65.4358 370.087 65.4801 370.103C65.5243 370.118 65.5714 370.124 65.618 370.119Z"
          fill="#FAFAFA"/>
    <path d="M66.6018 365.171C69.9167 364.658 73.3092 365.112 76.3718 366.481C76.4179 366.501 76.4682 366.509 76.5183 366.505C76.5683 366.5 76.6165 366.483 76.6583 366.455C76.7001 366.427 76.7342 366.389 76.7576 366.345C76.7809 366.3 76.7927 366.251 76.7918 366.201V365.201C76.7879 365.145 76.7692 365.092 76.7375 365.046C76.7058 365 76.6624 364.964 76.6118 364.941C75.7418 364.531 72.6118 362.631 66.6118 363.711C66.5491 363.72 66.491 363.75 66.4461 363.795C66.4012 363.84 66.3717 363.898 66.3618 363.961L66.2318 364.811C66.2225 364.861 66.2256 364.913 66.2411 364.961C66.2565 365.01 66.2838 365.054 66.3204 365.09C66.357 365.125 66.4019 365.151 66.451 365.165C66.5001 365.18 66.5519 365.181 66.6018 365.171Z"
          fill="#FAFAFA"/>
    <path d="M60.3252 381.761C60.2152 385.111 60.5052 387.391 62.2652 389.891C64.5052 393.091 72.7852 396.081 76.3552 391.341C78.1252 388.981 78.5352 386.221 78.6952 383.431C76.3452 379.891 63.7452 378.621 60.3252 381.761Z" fill="#FAFAFA"/>
    <path d="M71.4807 210.4C68.8107 231.95 69.1407 257.89 68.3007 271.78C67.4607 285.67 65.9107 295.11 65.7407 305.68C65.4507 323.55 66.0007 343 66.0007 343C66.0007 343 73.5207 347.29 82.0007 344.47C82.0007 344.47 89.0807 308.31 90.8907 297.17C93.4807 281.3 96.8907 253.09 96.8907 253.09L100.011 283.09C98.6253 290.527 98.3121 298.124 99.0807 305.65C99.8607 312.65 103.191 338.26 103.191 338.26C105.814 339.295 108.632 339.742 111.447 339.569C114.262 339.396 117.004 338.608 119.481 337.26C119.481 337.26 123.871 288.26 124.231 281.79C124.761 272.68 125.341 204.79 125.231 197.02L71.4807 210.4Z"
          fill="#455A64"/>
    <path d="M96.8672 253.049L99.2572 237.049C99.2572 237.049 110.037 234.049 114.607 226.789C111.607 235.719 101.667 239.679 101.667 239.679L98.2572 255.209L99.9972 283.049L96.8672 253.049Z" fill="#37474F"/>
    <path d="M112.24 138.105C120.75 139.445 123.54 142.375 126.56 149.585C131.7 161.875 136.69 173.995 136.69 173.995L160.2 183.395L158.13 198.395C158.13 198.395 140.07 194.695 129.45 191.885C126.45 191.075 125.36 189.155 123.88 186.975C122.66 185.195 111 163.485 111 163.485L112.24 138.105Z"
          fill="#263238"/>
    <path d="M123.772 157.647C121.572 146.307 120.552 141.277 113.182 138.747C105.812 136.217 93.1815 136.317 93.1815 136.317C89.3815 137.317 77.5215 140.157 72.3515 141.697C67.1815 143.237 68.2515 155.257 69.4515 162.927C70.9044 171.687 71.8261 180.526 72.2115 189.397C72.0115 201.617 70.9115 209.867 70.4315 216.857C81.4315 223.857 113.622 222.617 125.292 215.587C125.562 209.777 125.652 194.447 125.552 186.927C125.362 172.817 124.692 162.427 123.772 157.647Z"
          fill="#37474F"/>
    <path d="M75.9038 140.367C71.5138 141.127 65.9638 142.367 63.4738 146.367C61.6738 149.267 52.1238 171.697 52.3638 180.837C56.0238 191.207 74.9338 172.177 74.9338 172.177C77.1138 159.807 79.7938 146.937 75.9038 140.367Z" fill="#263238"/>
    <path d="M116.566 92.1685C113.783 89.2299 110.125 87.2692 106.136 86.5785C102.178 85.8221 98.0965 86.014 94.2264 87.1385C89.7464 88.4585 84.9364 92.3085 84.6464 97.7985C82.5064 98.2885 80.9364 100.478 80.4064 103.068C79.5864 107.068 80.8564 111.368 82.3164 114.988C82.3164 114.988 87.1464 123.688 88.0464 125.498C89.0464 127.608 89.8364 129.368 89.8364 129.368L89.5664 122.758C92.1902 122.703 94.7928 122.275 97.2964 121.488C99.7805 120.594 102.188 119.5 104.496 118.218C109.066 115.619 113.387 112.606 117.406 109.218C119.696 107.348 120.116 105.218 120.226 102.328C120.328 100.476 120.056 98.6224 119.427 96.8771C118.799 95.1318 117.826 93.5306 116.566 92.1685Z"
          fill="#263238"/>
    <path d="M95.2357 99.1497C94.6165 101.939 93.1031 104.45 90.9257 106.3C91.4057 108.943 91.4327 111.648 91.0057 114.3C90.9057 114.869 90.6951 115.412 90.3857 115.9C90.2243 116.139 90.0129 116.341 89.766 116.492C89.5192 116.642 89.2427 116.737 88.9557 116.77C88.1857 116.77 87.8757 116.34 87.6457 115.77C87.3105 114.993 86.9264 114.238 86.4957 113.51C86.309 113.19 86.084 112.895 85.8257 112.63C84.6657 111.53 81.1957 110.16 79.5357 113.84C77.8757 117.52 80.8257 122.77 83.6157 123.59C88.4357 125.01 89.5257 121.73 89.5257 121.73L90.2157 139C92.8057 141.78 102.786 145.85 105.596 149.14C106.916 146.95 109.846 143.3 107.226 138.44V132.79C109.141 132.886 111.06 132.758 112.946 132.41C115.456 131.96 117.886 129.7 119.066 125.92C121.356 118.54 120.216 108.37 119.346 103.79C118.896 101.01 117.652 98.4198 115.766 96.3297C115.676 96.2324 115.566 96.1569 115.443 96.1091C115.32 96.0613 115.188 96.0425 115.056 96.0541C114.925 96.0657 114.797 96.1074 114.685 96.176C114.572 96.2446 114.476 96.3383 114.406 96.4497C113.771 97.2911 112.968 97.992 112.049 98.5083C111.13 99.0246 110.115 99.3451 109.066 99.4497C106.066 99.8497 101.196 99.0697 97.5257 97.8797C97.2922 97.7991 97.0444 97.7685 96.7983 97.79C96.5523 97.8114 96.3135 97.8844 96.0975 98.0042C95.8815 98.1239 95.6931 98.2879 95.5447 98.4852C95.3962 98.6826 95.2909 98.909 95.2357 99.1497Z"
          fill="#F9A78D"/>
    <path d="M107.222 132.758C102.762 132.288 98.1022 131.528 95.6122 130.178C93.9965 129.343 92.6536 128.062 91.7422 126.488C91.7422 126.488 91.9322 128.268 94.2922 130.658C96.9522 133.348 107.222 134.458 107.222 134.458V132.758Z" fill="#F57F62"/>
    <path d="M102.658 112.08C102.65 112.381 102.553 112.674 102.381 112.921C102.208 113.169 101.967 113.36 101.687 113.471C101.406 113.582 101.099 113.609 100.804 113.547C100.509 113.486 100.238 113.339 100.026 113.125C99.8132 112.911 99.6681 112.64 99.6085 112.344C99.5489 112.048 99.5774 111.742 99.6905 111.462C99.8036 111.183 99.9962 110.942 100.245 110.771C100.493 110.6 100.786 110.506 101.088 110.5C101.505 110.503 101.904 110.67 102.198 110.966C102.493 111.262 102.658 111.663 102.658 112.08Z"
          fill="#263238"/>
    <path d="M112.945 103.999C114.55 104.264 116.071 104.901 117.385 105.859C117.623 105.252 117.617 104.576 117.367 103.974C117.117 103.371 116.643 102.889 116.045 102.629C115.752 102.509 115.438 102.449 115.122 102.453C114.805 102.458 114.493 102.526 114.204 102.654C113.914 102.782 113.653 102.967 113.437 103.198C113.221 103.429 113.054 103.702 112.945 103.999Z"
          fill="#263238"/>
    <path d="M102.585 121.129L108.085 122.699C107.999 123.067 107.84 123.414 107.616 123.719C107.393 124.024 107.111 124.281 106.786 124.474C106.461 124.667 106.1 124.793 105.726 124.844C105.351 124.894 104.97 124.869 104.605 124.769C103.863 124.541 103.238 124.035 102.861 123.356C102.485 122.677 102.386 121.879 102.585 121.129Z"
          fill="#F57F62"/>
    <path d="M103.119 122.398C103.748 122.447 104.338 122.724 104.776 123.177C105.215 123.63 105.472 124.228 105.499 124.858C105.2 124.873 104.9 124.843 104.609 124.768C104.101 124.599 103.647 124.296 103.296 123.891C102.944 123.487 102.707 122.996 102.609 122.468C102.777 122.429 102.948 122.405 103.119 122.398Z"
          fill="#F28F8F"/>
    <path d="M101.772 107.777C100.187 108.065 98.7493 108.892 97.7025 110.117C97.5474 109.856 97.4461 109.566 97.4044 109.265C97.3627 108.965 97.3816 108.659 97.4598 108.365C97.538 108.072 97.6741 107.797 97.86 107.557C98.046 107.317 98.278 107.116 98.5425 106.967C99.0811 106.658 99.7185 106.569 100.321 106.721C100.923 106.872 101.443 107.25 101.772 107.777Z"
          fill="#263238"/>
    <path d="M116.287 110.877C116.281 111.181 116.186 111.476 116.014 111.727C115.841 111.977 115.599 112.171 115.317 112.284C115.035 112.398 114.726 112.426 114.428 112.365C114.13 112.305 113.856 112.158 113.641 111.943C113.427 111.728 113.28 111.454 113.219 111.156C113.158 110.859 113.186 110.549 113.3 110.267C113.413 109.985 113.607 109.743 113.858 109.571C114.108 109.398 114.403 109.303 114.707 109.297C115.126 109.297 115.528 109.463 115.824 109.76C116.121 110.056 116.287 110.458 116.287 110.877Z"
          fill="#263238"/>
    <path d="M107.094 107.93L108.094 119.31L113.734 117.58C112.223 113.932 109.96 110.644 107.094 107.93Z" fill="#F57F62"/>
    <path d="M105.599 149.108C103.599 147.888 99.7191 145.028 97.7791 147.478C95.8391 149.928 94.4091 152.788 92.9891 152.358C91.5691 151.928 86.9091 147.478 85.1491 143.638C84.2616 141.536 83.7994 139.279 83.7891 136.998C83.7891 136.998 85.4791 135.138 86.8791 133.698C88.4291 132.098 88.6891 131.698 89.8791 131.598L90.0391 135.858C90.1695 136.703 90.4665 137.514 90.9129 138.243C91.3592 138.973 91.9459 139.607 92.6391 140.108C96.1391 142.638 103.109 143.548 105.599 149.108Z"
          fill="#263238"/>
    <path d="M105.594 149.11C106.774 148.05 108.424 145.19 110.324 145.75C112.224 146.31 114.074 150.07 114.134 149.05C114.194 148.03 112.504 142.62 110.924 139.63C109.714 137.33 108.494 135.3 107.224 135.07V138.41C107.224 138.41 107.224 141.3 107.084 143.03C107.009 145.138 106.502 147.207 105.594 149.11Z"
          fill="#263238"/>
    <path d="M75.6797 148.447C77.5841 146.062 78.9948 143.323 79.8297 140.387C80.6797 136.967 83.3797 133.817 84.2997 132.527C85.2197 131.237 87.1997 129.327 88.7097 127.527C90.2197 125.727 90.7097 125.197 92.8397 124.837C95.8397 124.327 98.1697 123.837 99.3397 124.217C100.51 124.597 100.47 125.337 99.4597 126.367C98.4497 127.397 96.2997 127.657 95.6397 127.857C94.9797 128.057 93.5197 128.697 93.5197 128.697L90.7497 132.767C92.6496 133.091 94.5243 133.549 96.3597 134.137C97.2797 134.637 98.0697 137.007 97.6597 138.327C97.6597 138.327 99.3797 139.487 98.6597 141.177C98.6597 141.177 99.7097 142.547 98.9897 143.677C98.1763 144.81 97.2406 145.849 96.1997 146.777C95.6297 147.267 93.3697 147.387 93.3697 147.387C92.3732 148.905 91.1832 150.287 89.8297 151.497C88.2197 152.687 87.1697 152.607 85.4097 155.107L75.6797 148.447Z"
          fill="#F9A78D"/>
    <path d="M92.8594 133.17C93.9694 132.69 94.2194 131.94 95.2694 132.34C96.3194 132.74 95.9094 133.93 95.9094 133.93L92.8594 133.17Z" fill="#F57F62"/>
    <path d="M97.63 138.41C96.9364 137.824 96.17 137.33 95.35 136.94C94.58 136.56 93 136 93 136C94.1187 136.094 95.2173 136.354 96.26 136.77C96.7936 136.977 97.306 137.235 97.79 137.54C97.7869 137.8 97.7499 138.059 97.68 138.31L97.63 138.41Z"
          fill="#F57F62"/>
    <path d="M97.7797 140.001C98.1514 140.157 98.5122 140.337 98.8597 140.541C98.8308 140.801 98.7704 141.056 98.6797 141.301C97.8034 140.506 96.7859 139.881 95.6797 139.461C96.398 139.56 97.1025 139.742 97.7797 140.001Z" fill="#F57F62"/>
    <path d="M93 147.998C93.6437 146.7 94.4106 145.468 95.29 144.318C95.5734 143.999 95.967 143.799 96.3918 143.758C96.8166 143.717 97.241 143.838 97.58 144.098C97.87 144.548 96.35 144.488 95.91 144.688C94.7734 145.632 93.7916 146.749 93 147.998Z"
          fill="#F57F62"/>
    <path d="M89.4688 132.629C89.4688 132.629 90.3287 131.419 91.8587 129.489C93.3887 127.559 93.3088 127.839 94.7988 127.549C96.2888 127.259 99.1187 126.749 99.8787 125.859C99.7513 126.033 99.6109 126.197 99.4587 126.349C98.4587 127.349 96.2987 127.639 95.6387 127.839C94.9787 128.039 93.5187 128.679 93.5187 128.679L90.6687 132.869L89.4688 132.629Z"
          fill="#F57F62"/>
    <path d="M75.6818 148.449C70.6718 154.499 57.1618 168.999 54.0018 174.829C51.8418 178.829 51.3018 188.139 53.5018 191.519C55.7018 194.899 62.0118 193.519 67.1218 188.999C71.5218 185.129 75.2018 175.819 78.4018 169.189C81.6018 162.559 85.4018 155.089 85.4018 155.089L75.6818 148.449Z"
          fill="#F9A78D"/>
    <path d="M75.6797 148.449C76.8271 146.918 77.8313 145.284 78.6797 143.569C79.0869 142.705 79.4213 141.809 79.6797 140.889C79.8969 139.953 80.2015 139.039 80.5897 138.159C81.4318 136.434 82.4577 134.804 83.6497 133.299C84.7848 131.759 86.0244 130.299 87.3597 128.929C88.0097 128.229 88.6197 127.499 89.2297 126.759C89.8099 125.964 90.6092 125.356 91.5297 125.009C92.4605 124.762 93.4056 124.571 94.3597 124.439C95.2997 124.279 96.2397 124.109 97.1997 124.009C97.6805 123.949 98.1655 123.929 98.6497 123.949C99.161 123.95 99.6597 124.107 100.08 124.399C100.192 124.486 100.28 124.601 100.334 124.733C100.388 124.864 100.408 125.008 100.39 125.149C100.346 125.409 100.244 125.655 100.09 125.869C99.8047 126.272 99.4406 126.612 99.0197 126.869C98.1649 127.334 97.2391 127.655 96.2797 127.819C95.3594 128.065 94.4652 128.4 93.6097 128.819L93.6797 128.769L90.8997 132.829L90.8197 132.629C92.5197 132.969 94.2197 133.289 95.8897 133.799C96.1054 133.862 96.3134 133.949 96.5097 134.059C96.7065 134.184 96.8765 134.347 97.0097 134.539C97.2634 134.905 97.4622 135.306 97.5997 135.729C97.9191 136.564 97.992 137.474 97.8097 138.349V138.229C98.2753 138.56 98.6446 139.008 98.8797 139.529C98.9964 139.793 99.0544 140.08 99.0497 140.369C99.0518 140.657 98.9974 140.942 98.8897 141.209V141.109C99.1611 141.439 99.344 141.832 99.4209 142.252C99.4979 142.672 99.4665 143.105 99.3297 143.509C98.8964 144.21 98.3866 144.861 97.8097 145.449C97.5297 145.749 97.2497 146.039 96.9497 146.329C96.6745 146.646 96.3331 146.898 95.9497 147.069C95.1588 147.299 94.3427 147.43 93.5197 147.459H93.5797C93.0532 148.232 92.4857 148.977 91.8797 149.689C91.3019 150.439 90.6296 151.111 89.8797 151.689C89.1097 152.239 88.2397 152.589 87.4797 153.139C86.7414 153.701 86.0967 154.376 85.5697 155.139C86.046 154.336 86.6468 153.614 87.3497 152.999C88.0997 152.439 88.9697 152.069 89.7197 151.509C90.4715 150.933 91.144 150.261 91.7197 149.509C92.3105 148.787 92.8646 148.036 93.3797 147.259C94.1891 147.218 94.991 147.084 95.7697 146.859C96.1311 146.699 96.4497 146.455 96.6997 146.149C96.9897 145.869 97.2797 145.579 97.5497 145.279C98.1107 144.701 98.607 144.064 99.0297 143.379C99.1478 143.006 99.1704 142.609 99.0953 142.224C99.0201 141.84 98.8497 141.48 98.5997 141.179V141.129C98.6904 140.882 98.7377 140.622 98.7397 140.359C98.7365 140.098 98.6822 139.839 98.5797 139.599C98.3561 139.116 98.0116 138.7 97.5797 138.389H97.5197V138.309C97.6892 137.479 97.6163 136.618 97.3097 135.829C97.0197 135.049 96.6097 134.219 95.7397 134.059C94.0897 133.569 92.3797 133.249 90.7397 132.919H90.5397L90.6497 132.749L93.4097 128.679C94.2783 128.258 95.186 127.923 96.1197 127.679C97.0477 127.519 97.9451 127.215 98.7797 126.779C99.1841 126.525 99.5259 126.183 99.7797 125.779C100.05 125.419 100.18 124.939 99.7797 124.679C98.9557 124.261 98.0122 124.141 97.1097 124.339C96.1097 124.439 95.2197 124.589 94.2797 124.749C93.34 124.879 92.4085 125.063 91.4897 125.299C90.6061 125.628 89.8379 126.209 89.2797 126.969C88.6697 127.699 88.0497 128.439 87.3997 129.139C86.0527 130.493 84.8061 131.944 83.6697 133.479C82.4792 134.967 81.4533 136.58 80.6097 138.289C80.2104 139.157 79.8956 140.061 79.6697 140.989C79.4122 141.909 79.0777 142.805 78.6697 143.669C77.8173 145.348 76.8167 146.948 75.6797 148.449Z"
          fill="#F57F62"/>
    <path d="M173.022 163.488L132.792 178.328L122.352 226.608L123.272 227.558L161.502 212.648L173.942 164.428L173.022 163.488Z" fill="#2C78F6"/>
    <path opacity="0.25" d="M173.022 163.488L132.792 178.328L122.352 226.608L123.272 227.558L161.502 212.648L173.942 164.428L173.022 163.488Z" fill="white"/>
    <path d="M133.712 179.278L123.272 227.558L122.352 226.608L132.792 178.328L133.712 179.278Z" fill="#2C78F6"/>
    <path opacity="0.35" d="M133.712 179.278L123.272 227.558L122.352 226.608L132.792 178.328L133.712 179.278Z" fill="black"/>
    <path d="M173.943 164.43L133.713 179.28L123.273 227.56L161.503 212.65L173.943 164.43Z" fill="#2C78F6"/>
    <g opacity="0.2">
        <path d="M155.352 203C155.742 203.94 158.872 206 163.352 205.54L164.072 202.75L155.352 203Z" fill="black"/>
    </g>
    <g opacity="0.1">
        <path d="M161.904 174.46L162.214 172.85C162.384 171.95 160.014 172.45 156.924 173.97L149.664 176.28C146.574 177.8 143.664 178.93 143.474 179.82L143.164 181.44L161.904 174.46Z" fill="black"/>
    </g>
    <path d="M164.203 167.13C164.313 166.57 163.383 166.7 162.103 167.06L159.783 167.89C159.783 167.89 160.563 165.12 155.213 167.11C148.363 169.65 149.083 171.87 149.083 171.87C148.139 172.293 147.171 172.66 146.183 172.97C144.183 173.65 143.963 174.05 143.803 174.62L143.523 175.62L164.003 168.09C164.003 168.09 164.093 167.69 164.203 167.13Z"
          fill="#37474F"/>
    <path d="M162.084 170.257C160.184 171.147 159.394 171.588 159.084 172.958C158.774 174.538 158.714 175.188 158.714 175.188L148.044 179.577C148.044 179.577 148.594 177.258 148.724 176.488C148.854 175.718 147.434 175.727 145.594 176.617L146.004 174.688L162.484 168.688L162.084 170.257Z"
          fill="#263238"/>
    <path d="M162.451 174.479L162.761 172.869C162.931 171.969 160.571 172.469 157.481 173.989L150.211 176.299C147.121 177.809 144.211 178.949 144.021 179.839L143.711 181.459L162.451 174.479Z" fill="#263238"/>
    <path d="M169.681 180.999C169.681 180.999 168.321 186.299 167.961 187.639C167.601 188.979 161.031 192.129 157.721 192.639C151.391 193.519 150.721 194.909 152.281 199.389C153.741 203.519 157.901 205.029 163.611 204.269C165.408 203.895 167.073 203.049 168.435 201.819C169.797 200.589 170.807 199.018 171.361 197.269C173.141 191.939 172.061 186.269 172.751 183.179C173.441 180.089 171.261 179.089 169.681 180.999Z"
          fill="#F9A78D"/>
    <path d="M184.633 239.998C185.143 238.798 186.453 237.928 188.433 237.688C190.615 237.54 192.802 237.911 194.813 238.772C196.824 239.632 198.602 240.957 200.003 242.638C201.203 244.228 201.493 245.778 201.003 246.978L168.053 333.098C167.423 334.918 165.563 336.228 162.653 336.588C157.113 337.258 149.903 334.188 146.553 329.728C144.793 327.388 144.463 325.128 145.323 323.418L184.633 239.998Z"
          fill="#455A64"/>
    <path d="M200.001 242.64C202.401 245.83 201.131 248.81 197.171 249.29C195.001 249.433 192.827 249.063 190.825 248.21C188.824 247.357 187.051 246.045 185.651 244.38C183.251 241.19 184.521 238.21 188.481 237.73C190.652 237.585 192.827 237.954 194.828 238.807C196.83 239.661 198.602 240.974 200.001 242.64Z"
          fill="#37474F"/>
    <path d="M200.814 214.999C202.135 214.91 203.458 215.136 204.675 215.657C205.892 216.179 206.967 216.981 207.814 217.999C208.138 218.343 208.363 218.768 208.467 219.229C208.571 219.69 208.549 220.17 208.404 220.619L197.744 245.619C197.52 246.036 197.189 246.385 196.784 246.629C196.379 246.874 195.917 247.005 195.444 247.009C194.123 247.099 192.799 246.874 191.582 246.353C190.365 245.831 189.29 245.028 188.444 244.009C188.12 243.663 187.895 243.237 187.791 242.775C187.687 242.312 187.709 241.831 187.854 241.379L198.514 216.379C198.741 215.966 199.073 215.621 199.477 215.378C199.881 215.136 200.343 215.005 200.814 214.999Z"
          fill="#2C78F6"/>
    <path opacity="0.2"
          d="M200.814 214.999C202.135 214.91 203.458 215.136 204.675 215.657C205.892 216.179 206.967 216.981 207.814 217.999C208.138 218.343 208.363 218.768 208.467 219.229C208.571 219.69 208.549 220.17 208.404 220.619L197.744 245.619C197.52 246.036 197.189 246.385 196.784 246.629C196.379 246.874 195.917 247.005 195.444 247.009C194.123 247.099 192.799 246.874 191.582 246.353C190.365 245.831 189.29 245.028 188.444 244.009C188.12 243.663 187.895 243.237 187.791 242.775C187.687 242.312 187.709 241.831 187.854 241.379L198.514 216.379C198.741 215.966 199.073 215.621 199.477 215.378C199.881 215.136 200.343 215.005 200.814 214.999Z"
          fill="black"/>
    <path opacity="0.2"
          d="M193.602 227.928L194.342 228.358L194.452 228.428L194.592 228.508L194.752 228.588C195.221 228.867 195.705 229.121 196.202 229.348C196.8 229.651 197.414 229.921 198.042 230.158C198.593 230.397 199.158 230.608 199.732 230.788C200.023 230.893 200.32 230.98 200.622 231.048C200.947 231.171 201.281 231.268 201.622 231.338C201.962 231.438 202.272 231.518 202.622 231.588C202.861 231.657 203.105 231.707 203.352 231.738H203.602L208.372 220.538C208.517 220.088 208.538 219.608 208.435 219.147C208.331 218.687 208.105 218.262 207.782 217.918C207.491 217.544 207.155 217.208 206.782 216.918C203.804 217.83 200.723 218.358 197.612 218.488L193.602 227.928Z"
          fill="black"/>
    <path opacity="0.15" d="M193.245 249L158.555 336.44C159.906 336.666 161.282 336.71 162.645 336.57C165.555 336.21 167.415 334.9 168.045 333.08L200.925 247C200.415 248.21 199.105 249.06 197.125 249.3C195.824 249.421 194.512 249.32 193.245 249Z"
          fill="black"/>
    <path d="M301.626 111.46C301.626 110.74 301.566 110.03 301.506 109.32C301.446 108.61 301.426 107.93 301.356 107.24C301.356 106.77 301.266 106.31 301.206 105.85C301.086 104.65 300.916 103.46 300.716 102.33C300.626 101.81 300.536 101.33 300.436 100.77C300.336 100.21 300.236 99.7703 300.126 99.3203C299.826 98.0103 299.506 96.7303 299.126 95.5003C298.936 94.9203 298.756 94.3403 298.556 93.7703C298.52 93.6833 298.494 93.5928 298.476 93.5003C298.266 92.9303 298.066 92.3903 297.846 91.8603C297.626 91.3303 297.356 90.6103 297.076 90.0303C296.796 89.4503 296.686 89.1603 296.456 88.7403C296.327 88.4221 296.173 88.1145 295.996 87.8203C295.816 87.4503 295.626 87.0703 295.406 86.7103C295.366 86.6269 295.319 86.5467 295.266 86.4703C295.086 86.1503 294.896 85.8303 294.706 85.4703C294.516 85.1103 294.436 85.0603 294.316 84.8603C293.408 83.4454 292.384 82.1075 291.256 80.8603L290.696 80.2203C290.536 80.0403 290.376 79.8803 290.216 79.7203C290.056 79.5603 289.816 79.3103 289.596 79.1003C289.02 78.5105 288.405 77.9593 287.756 77.4503C287.456 77.1903 287.136 76.9403 286.816 76.7103C286.496 76.4803 286.176 76.2303 285.816 76.0003C285.296 75.6303 284.766 75.2803 284.236 75.0003L283.816 74.7403L283.726 74.6703L273.826 68.8403L273.686 68.7603C268.87 66.0704 263.432 64.6911 257.916 64.7603C249.696 64.7603 240.416 67.4503 230.576 73.1203C196.796 92.6103 169.406 140 169.406 179C169.406 198.45 176.216 212.14 187.206 218.55H187.316L197.236 224.36L197.346 224.43L197.486 224.51C197.546 224.51 197.596 224.57 197.646 224.59C198.116 224.869 198.6 225.123 199.096 225.35C199.696 225.65 200.316 225.92 200.946 226.16C201.493 226.402 202.054 226.61 202.626 226.78C202.915 226.893 203.213 226.983 203.516 227.05C203.841 227.174 204.176 227.271 204.516 227.34C204.856 227.44 205.166 227.52 205.516 227.59C205.756 227.655 206 227.705 206.246 227.74C206.676 227.83 207.126 227.92 207.576 227.97C207.675 228.01 207.78 228.031 207.886 228.03C208.406 228.11 208.946 228.19 209.466 228.24C218.576 229.24 229.166 226.63 240.466 220.09C274.256 200.59 301.646 153.14 301.646 114.15C301.676 113.31 301.656 112.39 301.626 111.46ZM190.166 203.46C188.761 198.244 188.068 192.862 188.106 187.46C188.106 150.46 215.106 103.65 247.156 85.1703C251.836 82.4011 256.887 80.3135 262.156 78.9703C264.678 78.3343 267.266 77.9987 269.866 77.9703C271.176 77.9641 272.483 78.0645 273.776 78.2703H273.886C280.436 86.0203 281.396 98.4403 281.396 105.07C281.396 142.07 254.396 188.88 222.396 207.35C214.256 212.05 206.396 214.54 199.706 214.54C198.312 214.549 196.923 214.371 195.576 214.01C193.076 210.912 191.234 207.336 190.166 203.5V203.46Z"
          fill="#37474F"/>
    <path opacity="0.25"
          d="M292.872 111.629C292.872 131.259 285.243 153.679 273.293 173.159C272.733 174.089 272.152 174.999 271.562 175.909C270.973 176.819 270.563 177.469 270.033 178.249C268.903 179.919 267.772 181.559 266.582 183.169C266.022 183.943 265.452 184.703 264.872 185.449C264.242 186.279 263.602 187.099 262.962 187.909C261.732 189.459 260.453 190.969 259.163 192.439C258.313 193.439 257.443 194.389 256.573 195.319C249.952 202.602 242.289 208.864 233.833 213.899C232.303 214.789 230.832 215.589 229.292 216.319C224.426 218.802 219.152 220.388 213.723 220.999C212.869 221.086 212.011 221.13 211.152 221.129C210.702 221.129 210.283 221.129 209.853 221.129C209.038 221.098 208.226 221.015 207.423 220.879C207.033 220.819 206.643 220.759 206.273 220.669C205.903 220.579 205.522 220.509 205.152 220.399C201.363 219.434 197.994 217.252 195.562 214.189C196.906 214.546 198.292 214.721 199.682 214.709C206.402 214.709 214.233 212.239 222.383 207.539C254.383 189.069 281.383 142.209 281.383 105.249C281.383 98.6092 280.382 86.2492 273.862 78.4492H273.763C282.113 79.7892 286.853 85.4492 289.533 92.0192C290.289 93.8783 290.898 95.7943 291.353 97.7492C291.353 97.8592 291.403 97.9592 291.423 98.0692C291.513 98.4192 291.603 98.7792 291.663 99.1392C291.723 99.4992 291.802 99.8292 291.862 100.139C291.869 100.229 291.869 100.319 291.862 100.409C291.932 100.779 292.003 101.149 292.062 101.509C292.272 102.879 292.442 104.209 292.552 105.509C292.552 105.889 292.623 106.239 292.643 106.589C292.663 106.939 292.643 107.129 292.703 107.389C292.703 107.499 292.703 107.609 292.703 107.719C292.703 108.009 292.703 108.289 292.753 108.569C292.757 108.646 292.757 108.723 292.753 108.799C292.753 109.159 292.753 109.493 292.753 109.799C292.873 110.399 292.872 110.999 292.872 111.629Z"
          fill="black"/>
    <path d="M196.386 224L187.206 218.6C176.206 212.17 169.406 198.49 169.406 179.07C169.406 161.68 174.856 142.61 183.876 125.07L194.336 131.07C185.336 148.57 179.336 167.43 179.336 184.83C179.316 203.89 185.796 217.39 196.386 224Z" fill="#263238"/>
    <path d="M283.85 74.7091L283.76 74.6391L273.86 68.8191L273.72 68.7291C268.904 66.0379 263.466 64.6585 257.95 64.7291C249.73 64.7291 240.45 67.4191 230.61 73.0891C211.89 83.8991 195.14 103.299 183.93 125.089L194.34 131.209L194.11 131.639C205.36 110.099 222.03 90.6391 240.55 78.9291C257.31 68.3691 273.22 68.2191 284.33 74.9291L283.85 74.7091Z"
          fill="#455A64"/>
    <path opacity="0.1"
          d="M287.55 108.489C287.55 145.489 260.55 192.299 228.5 210.779C223.822 213.552 218.77 215.64 213.5 216.979C210.978 217.615 208.39 217.951 205.79 217.979C203.12 218.011 200.467 217.557 197.96 216.639C193.96 213.299 191.58 208.479 190.14 203.519C188.734 198.303 188.041 192.921 188.08 187.519C188.08 150.519 215.08 103.709 247.13 85.2292C251.81 82.46 256.86 80.3723 262.13 79.0292C264.651 78.3932 267.239 78.0575 269.84 78.0292C272.509 77.9949 275.162 78.4456 277.67 79.3592C281.67 82.6892 284.05 87.5292 285.49 92.4792C286.896 97.6984 287.589 103.084 287.55 108.489Z"
          fill="#2C78F6"/>
    <path opacity="0.3"
          d="M205.81 217.999C208.411 217.971 210.999 217.635 213.52 216.999C218.791 215.66 223.843 213.572 228.52 210.799C260.52 192.319 287.57 145.469 287.57 108.509C287.609 103.107 286.916 97.7249 285.51 92.5089C284.07 87.5689 281.68 82.7389 277.72 79.4089L277.34 79.2789C276.99 79.1489 276.64 79.0389 276.27 78.9289L275.64 78.7589C275.28 78.6589 274.9 78.5889 274.53 78.5089L273.87 78.3789C280.43 86.1289 281.39 98.5389 281.39 105.179C281.39 142.179 254.39 188.999 222.39 207.469C214.24 212.169 206.39 214.639 199.69 214.639C198.3 214.651 196.914 214.476 195.57 214.119L195.63 214.199C196.362 215.077 197.168 215.89 198.04 216.629C200.527 217.55 203.159 218.014 205.81 217.999Z"
          fill="white"/>
    <path d="M360.64 126.129L315.45 152.219C313.03 153.609 311.07 152.129 311.07 148.899V109.699C311.07 106.469 313.07 102.699 315.45 101.319L360.64 75.2389C363.06 73.8389 365.02 75.3189 365.02 78.5489V117.759C365 120.999 363.06 124.729 360.64 126.129Z"
          fill="#FAFAFA"/>
    <path d="M313.714 153.22C313.236 153.224 312.767 153.1 312.354 152.86C311.234 152.22 310.594 150.78 310.594 148.86V109.7C310.594 106.32 312.674 102.38 315.214 100.91L360.404 74.8202C360.887 74.4824 361.453 74.2826 362.042 74.2421C362.63 74.2015 363.219 74.3219 363.744 74.5902C364.864 75.2402 365.504 76.6802 365.504 78.5902V117.8C365.504 121.17 363.434 125.12 360.884 126.59L315.704 152.63C315.104 152.999 314.417 153.202 313.714 153.22ZM362.384 75.2202C361.852 75.2378 361.334 75.3965 360.884 75.6802L315.704 101.74C313.414 103.06 311.554 106.63 311.554 109.74V148.94C311.554 150.46 312.024 151.6 312.834 152.07C313.215 152.248 313.637 152.321 314.055 152.281C314.474 152.24 314.874 152.088 315.214 151.84L360.404 125.75C362.684 124.43 364.544 120.87 364.544 117.8V78.5502C364.544 77.0302 364.074 75.8902 363.264 75.4202C362.995 75.2704 362.691 75.1944 362.384 75.2002V75.2202Z"
          fill="#E0E0E0"/>
    <path d="M350.736 96.75L341.516 129.91L359.956 119.26L350.736 96.75Z" fill="#2C78F6"/>
    <path opacity="0.3" d="M350.736 96.75L341.516 129.91L359.956 119.26L350.736 96.75Z" fill="white"/>
    <path d="M338.05 94.4688L328.82 137.229L347.27 126.579L338.05 94.4688Z" fill="#2C78F6"/>
    <path d="M325.47 116.59L316.25 144.49L334.69 133.85L325.47 116.59Z" fill="#2C78F6"/>
    <path opacity="0.3" d="M325.47 116.59L316.25 144.49L334.69 133.85L325.47 116.59Z" fill="black"/>
    <path d="M318 107.638L316.55 108.478C316.38 108.568 316.25 108.478 316.25 108.248V105.878C316.252 105.766 316.279 105.656 316.332 105.557C316.384 105.458 316.459 105.373 316.55 105.308L318 104.468C318.17 104.368 318.3 104.468 318.3 104.698V107.058C318.298 107.172 318.271 107.283 318.218 107.384C318.166 107.484 318.092 107.572 318 107.638Z"
          fill="#2C78F6"/>
    <path opacity="0.3"
          d="M318 107.638L316.55 108.478C316.38 108.568 316.25 108.478 316.25 108.248V105.878C316.252 105.766 316.279 105.656 316.332 105.557C316.384 105.458 316.459 105.373 316.55 105.308L318 104.468C318.17 104.368 318.3 104.468 318.3 104.698V107.058C318.298 107.172 318.271 107.283 318.218 107.384C318.166 107.484 318.092 107.572 318 107.638Z"
          fill="black"/>
    <path d="M318 112.199L316.55 113.039C316.38 113.139 316.25 113.039 316.25 112.809V110.449C316.252 110.336 316.279 110.225 316.332 110.124C316.384 110.023 316.458 109.936 316.55 109.869L318 108.999C318.17 108.909 318.3 108.999 318.3 109.229V111.599C318.303 111.716 318.278 111.832 318.225 111.937C318.173 112.042 318.096 112.132 318 112.199Z"
          fill="#2C78F6"/>
    <path d="M318 116.76L316.55 117.6C316.38 117.7 316.25 117.6 316.25 117.38V115C316.25 114.887 316.277 114.777 316.329 114.677C316.382 114.578 316.457 114.493 316.55 114.43L318 113.59C318.17 113.49 318.3 113.59 318.3 113.81V116.18C318.302 116.294 318.275 116.406 318.223 116.507C318.171 116.609 318.094 116.695 318 116.76Z"
          fill="#2C78F6"/>
    <path opacity="0.3"
          d="M318 116.76L316.55 117.6C316.38 117.7 316.25 117.6 316.25 117.38V115C316.25 114.887 316.277 114.777 316.329 114.677C316.382 114.578 316.457 114.493 316.55 114.43L318 113.59C318.17 113.49 318.3 113.59 318.3 113.81V116.18C318.302 116.294 318.275 116.406 318.223 116.507C318.171 116.609 318.094 116.695 318 116.76Z"
          fill="white"/>
    <path d="M239.427 257.769C239.512 257.729 239.587 257.669 239.644 257.594C239.702 257.52 239.74 257.432 239.757 257.339C239.961 256.525 240.121 255.701 240.237 254.869C240.353 254.084 240.423 253.293 240.447 252.499C240.447 252.299 240.347 252.189 240.207 252.239L238.567 252.739C238.552 251.633 238.376 250.535 238.047 249.479L239.447 247.479C239.506 247.402 239.546 247.312 239.565 247.217C239.584 247.122 239.581 247.023 239.557 246.929C239.149 245.895 238.505 244.971 237.677 244.229C237.577 244.149 237.417 244.229 237.297 244.399L235.907 246.399C235.239 245.946 234.454 245.696 233.647 245.679L233.987 243.299C233.987 243.089 233.937 242.949 233.807 242.949C233.25 242.993 232.699 243.1 232.167 243.269C231.58 243.449 231.01 243.683 230.467 243.969C230.388 244.027 230.321 244.1 230.271 244.184C230.222 244.269 230.189 244.362 230.177 244.459L229.837 246.839C228.856 247.463 227.962 248.212 227.177 249.069L226.257 247.739C226.177 247.629 226.017 247.659 225.887 247.809C224.805 249.091 223.853 250.478 223.047 251.949C223.004 252.031 222.982 252.122 222.982 252.214C222.982 252.307 223.004 252.397 223.047 252.479L223.967 253.799C223.346 255.044 222.841 256.342 222.457 257.679L220.817 258.179C220.731 258.22 220.656 258.28 220.597 258.355C220.538 258.429 220.497 258.516 220.477 258.609C220.277 259.429 220.117 260.249 219.997 261.079C219.888 261.868 219.821 262.663 219.797 263.459C219.797 263.649 219.897 263.759 220.037 263.719L221.677 263.219C221.691 264.319 221.866 265.41 222.197 266.459L220.797 268.459C220.739 268.537 220.699 268.627 220.679 268.722C220.66 268.817 220.663 268.915 220.687 269.009C221.09 270.046 221.735 270.971 222.567 271.709C222.667 271.789 222.827 271.709 222.947 271.549L224.337 269.549C225.004 269.997 225.784 270.246 226.587 270.269L226.257 272.649C226.257 272.849 226.307 272.999 226.437 272.989C226.994 272.949 227.544 272.845 228.077 272.679C228.664 272.496 229.234 272.258 229.777 271.969C229.858 271.913 229.926 271.841 229.976 271.756C230.026 271.671 230.057 271.577 230.067 271.479L230.407 269.099C231.387 268.48 232.282 267.733 233.067 266.879L233.987 268.199C234.067 268.319 234.227 268.289 234.357 268.139C235.439 266.856 236.388 265.465 237.187 263.989C237.232 263.908 237.255 263.817 237.255 263.724C237.255 263.632 237.232 263.54 237.187 263.459L236.267 262.139C236.886 260.897 237.391 259.602 237.777 258.269L239.427 257.769ZM230.997 263.849C226.717 267.179 223.777 262.959 226.057 256.739C226.677 254.936 227.772 253.333 229.227 252.099C233.507 248.759 236.447 252.989 234.167 259.209C233.547 261.013 232.452 262.616 230.997 263.849Z"
          fill="#E6E6E6"/>
    <path d="M251.92 258.281C251.952 258.242 251.976 258.197 251.99 258.149C252.003 258.101 252.007 258.051 252 258.001C251.965 257.524 251.898 257.049 251.8 256.581C251.708 256.157 251.577 255.742 251.41 255.341C251.41 255.271 251.3 255.271 251.23 255.341L250.12 256.341C249.871 255.829 249.496 255.389 249.03 255.061L249.61 253.411C249.61 253.301 249.61 253.191 249.61 253.161C248.996 252.837 248.301 252.698 247.61 252.761C247.54 252.761 247.46 252.851 247.42 252.961L246.84 254.611C246.206 254.724 245.601 254.962 245.06 255.311L244.77 254.001C244.767 253.984 244.759 253.968 244.748 253.955C244.737 253.942 244.723 253.932 244.707 253.926C244.691 253.92 244.673 253.918 244.656 253.921C244.64 253.923 244.623 253.93 244.61 253.941C244.207 254.226 243.823 254.537 243.46 254.871C243.071 255.235 242.703 255.623 242.36 256.031C242.325 256.07 242.298 256.116 242.283 256.166C242.267 256.216 242.263 256.269 242.27 256.321L242.56 257.631C242.011 258.339 241.532 259.1 241.13 259.901L240.13 259.711C240.07 259.711 239.98 259.711 239.94 259.861C239.433 260.938 239.038 262.064 238.76 263.221C238.76 263.331 238.76 263.421 238.83 263.431L239.83 263.631C239.655 264.459 239.571 265.304 239.58 266.151L238.48 267.151C238.439 267.187 238.408 267.232 238.387 267.282C238.366 267.332 238.357 267.387 238.36 267.441C238.389 267.919 238.456 268.393 238.56 268.861C238.652 269.285 238.783 269.7 238.95 270.101C238.95 270.171 239.06 270.171 239.13 270.101L240.24 269.101C240.484 269.617 240.86 270.058 241.33 270.381L240.75 272.041C240.75 272.141 240.75 272.251 240.75 272.281C241.364 272.605 242.059 272.744 242.75 272.681C242.82 272.681 242.9 272.591 242.94 272.481L243.51 270.841C244.146 270.719 244.753 270.478 245.3 270.131L245.59 271.441C245.589 271.46 245.594 271.478 245.605 271.494C245.615 271.51 245.631 271.522 245.648 271.529C245.666 271.535 245.685 271.536 245.704 271.531C245.722 271.526 245.738 271.516 245.75 271.501C246.155 271.218 246.539 270.908 246.9 270.571C247.289 270.21 247.656 269.826 248 269.421C248.067 269.336 248.099 269.229 248.09 269.121L247.8 267.821C248.347 267.107 248.826 266.344 249.23 265.541L250.23 265.741C250.29 265.741 250.38 265.681 250.42 265.581C250.921 264.502 251.316 263.376 251.6 262.221C251.6 262.111 251.6 262.021 251.53 262.011L250.53 261.811C250.705 260.982 250.789 260.137 250.78 259.291L251.92 258.281ZM246.92 265.361C244.63 268.541 241.8 267.901 241.99 264.181C242.096 262.707 242.608 261.291 243.47 260.091C245.77 256.921 248.59 257.561 248.41 261.281C248.307 262.754 247.791 264.168 246.92 265.361Z"
          fill="#E6E6E6"/>
    <path d="M255.134 236.08C255.175 236.044 255.207 235.999 255.228 235.949C255.248 235.898 255.258 235.844 255.254 235.79C255.224 235.312 255.157 234.837 255.054 234.37C254.962 233.946 254.831 233.531 254.664 233.13C254.664 233.06 254.554 233.06 254.484 233.13L253.374 234.13C253.126 233.618 252.755 233.175 252.294 232.84L252.864 231.2C252.864 231.09 252.864 230.98 252.864 230.95C252.25 230.626 251.556 230.487 250.864 230.55C250.794 230.55 250.714 230.64 250.674 230.75L250.104 232.39C249.468 232.512 248.861 232.753 248.314 233.1L248.024 231.79C248.021 231.773 248.014 231.757 248.003 231.744C247.992 231.731 247.977 231.721 247.961 231.715C247.945 231.709 247.928 231.707 247.911 231.71C247.894 231.712 247.878 231.719 247.864 231.73C247.462 232.015 247.078 232.326 246.714 232.66C246.328 233.023 245.96 233.407 245.614 233.81C245.581 233.851 245.556 233.9 245.542 233.951C245.529 234.003 245.526 234.057 245.534 234.11L245.824 235.42C245.269 236.126 244.786 236.886 244.384 237.69L243.384 237.49C243.324 237.49 243.244 237.55 243.194 237.65C242.686 238.725 242.284 239.847 241.994 241C241.994 241.11 241.994 241.2 242.064 241.21L243.064 241.41C242.89 242.238 242.806 243.083 242.814 243.93L241.714 244.93C241.674 244.966 241.642 245.011 241.621 245.061C241.6 245.111 241.591 245.166 241.594 245.22C241.624 245.698 241.691 246.173 241.794 246.64C241.887 247.064 242.017 247.479 242.184 247.88C242.184 247.95 242.294 247.95 242.364 247.88L243.474 246.88C243.724 247.391 244.099 247.832 244.564 248.16L243.984 249.82C243.984 249.92 243.984 250.03 243.984 250.06C244.598 250.384 245.293 250.523 245.984 250.46C246.054 250.46 246.134 250.37 246.174 250.26L246.754 248.62C247.386 248.493 247.989 248.253 248.534 247.91L248.824 249.22C248.828 249.237 248.835 249.253 248.846 249.266C248.857 249.279 248.871 249.289 248.887 249.295C248.904 249.301 248.921 249.303 248.938 249.3C248.955 249.297 248.971 249.29 248.984 249.28C249.391 249 249.776 248.689 250.134 248.35C250.524 247.989 250.891 247.605 251.234 247.2C251.27 247.159 251.296 247.111 251.312 247.06C251.327 247.008 251.332 246.953 251.324 246.9L251.034 245.6C251.581 244.886 252.06 244.123 252.464 243.32L253.464 243.52C253.524 243.52 253.614 243.46 253.664 243.36C254.162 242.28 254.554 241.155 254.834 240C254.834 239.89 254.834 239.8 254.764 239.79L253.764 239.59C253.939 238.761 254.023 237.916 254.014 237.07L255.134 236.08ZM250.134 243.16C247.834 246.34 245.014 245.7 245.194 241.98C245.299 240.504 245.815 239.087 246.684 237.89C248.974 234.72 251.804 235.35 251.614 239.08C251.509 240.549 251.001 241.961 250.144 243.16H250.134Z"
          fill="#E6E6E6"/>
    <path d="M142.31 123.851C142.14 123.941 142 123.851 142 123.551V84.9006C141.997 84.7742 142.024 84.6488 142.078 84.5343C142.132 84.4198 142.211 84.3193 142.31 84.2406C142.48 84.1406 142.62 84.2406 142.62 84.5406V123.191C142.621 123.317 142.594 123.442 142.541 123.556C142.487 123.67 142.408 123.771 142.31 123.851Z"
          fill="#E0E0E0"/>
    <path d="M182.597 100.593L138.597 125.983C138.427 126.083 138.297 125.983 138.297 125.683C138.294 125.559 138.319 125.436 138.371 125.323C138.423 125.21 138.501 125.111 138.597 125.033L182.597 99.6431C182.767 99.5431 182.897 99.6431 182.897 99.9331C182.901 100.059 182.876 100.184 182.824 100.298C182.772 100.413 182.694 100.513 182.597 100.593Z"
          fill="#E0E0E0"/>
    <path d="M149.9 87.7305L144.5 90.8505V117.99L149.9 114.87V87.7305Z" fill="#F5F5F5"/>
    <path d="M157.564 102.133L152.164 105.253V113.563L157.564 110.443V102.133Z" fill="#EBEBEB"/>
    <path d="M165.236 72.4219L159.836 75.5419V109.132L165.236 106.012V72.4219Z" fill="#F5F5F5"/>
    <path d="M172.908 81.4102L167.508 84.5302V104.7L172.908 101.58V81.4102Z" fill="#E0E0E0"/>
    <path d="M180.58 84.8008L175.18 87.9208V100.271L180.58 97.1608V84.8008Z" fill="#F5F5F5"/>
    <path d="M300.418 180.633V192.913L292.998 204.823C290.368 201.443 291.138 193.013 295.248 186.353C296.49 184.061 298.263 182.099 300.418 180.633Z" fill="#E0E0E0"/>
    <path d="M310.559 191.461C309.079 198.921 303.929 205.861 298.859 207.101C297.992 207.367 297.068 207.393 296.187 207.174C295.307 206.956 294.502 206.502 293.859 205.861L301.369 193.721L310.559 191.461Z" fill="#F0F0F0"/>
    <path d="M310.746 190.171L301.906 192.331L306.906 179.281C309.996 180.471 311.526 184.651 310.746 190.171Z" fill="#E0E0E0"/>
    <path d="M305.941 179.182L301.461 191.002V180.002C302.8 179.18 304.398 178.888 305.941 179.182Z" fill="#F0F0F0"/>
    <path d="M365.599 425.417C355.949 425.417 346.309 423.297 338.969 419.057C331.629 414.817 327.789 409.337 327.789 403.397C327.789 397.457 331.789 391.907 338.969 387.747C353.649 379.267 377.539 379.267 392.229 387.747C399.429 391.907 403.399 397.467 403.399 403.397C403.399 409.327 399.399 414.897 392.229 419.057C384.879 423.297 375.239 425.417 365.599 425.417ZM365.599 382.347C356.129 382.347 346.659 384.427 339.449 388.587C332.559 392.587 328.759 397.827 328.759 403.397C328.759 408.967 332.559 414.237 339.449 418.217C353.869 426.537 377.319 426.537 391.739 418.217C398.629 414.217 402.429 408.977 402.429 403.397C402.429 397.817 398.629 392.567 391.739 388.587C384.539 384.427 375.059 382.347 365.599 382.347Z"
          fill="#2C78F6"/>
    <path d="M366.591 395.53V401.81L360.391 385V378.73L366.591 395.53Z" fill="#263238"/>
    <path d="M366.594 395.53V401.81L392.174 392.93V386.66L366.594 395.53Z" fill="#37474F"/>
    <path d="M360.391 378.679L366.601 395.529L392.181 386.659C385.161 380.529 373.001 377.469 360.391 378.679Z" fill="#455A64"/>
    <path d="M364.045 403.449L360.245 421.319C344.735 419.809 333.535 411.959 333.665 402.999V396.879C333.665 405.769 344.845 413.529 360.255 415.039L362.865 402.759L364.045 403.449Z" fill="#2C78F6"/>
    <path opacity="0.4" d="M364.045 403.449L360.245 421.319C344.735 419.809 333.535 411.959 333.665 402.999V396.879C333.665 405.769 344.845 413.529 360.255 415.039L362.865 402.759L364.045 403.449Z" fill="black"/>
    <path d="M363.156 415.247V421.527C369.541 421.907 375.938 421.048 381.996 418.997C389.306 416.457 394.466 412.428 396.526 407.658C397.153 406.277 397.493 404.783 397.526 403.267C397.526 402.677 397.526 396.788 397.526 396.788C397.526 396.788 395.756 396.648 393.686 394.438L388.896 396.098L366.996 403.658L363.156 415.247Z"
          fill="#2C78F6"/>
    <path opacity="0.6"
          d="M363.156 415.247V421.527C369.541 421.907 375.938 421.048 381.996 418.997C389.306 416.457 394.466 412.428 396.526 407.658C397.153 406.277 397.493 404.783 397.526 403.267C397.526 402.677 397.526 396.788 397.526 396.788C397.526 396.788 395.756 396.648 393.686 394.438L388.896 396.098L366.996 403.658L363.156 415.247Z"
          fill="white"/>
    <path d="M344.07 389.52L363.13 400.52V394.25L344.07 383.25V389.52Z" fill="#2C78F6"/>
    <path opacity="0.1" d="M344.07 389.52L363.13 400.52V394.25L344.07 383.25V389.52Z" fill="black"/>
    <path d="M333.897 394.619C331.807 404.429 343.537 413.409 360.247 415.049L364.047 397.179L341.997 384.449C337.387 387.329 334.737 390.669 333.897 394.619Z" fill="#2C78F6"/>
    <path opacity="0.3" d="M333.897 394.619C331.807 404.429 343.537 413.409 360.247 415.049L364.047 397.179L341.997 384.449C337.387 387.329 334.737 390.669 333.897 394.619Z" fill="black"/>
    <path d="M363.266 414.729L363.156 415.249C369.544 415.618 375.943 414.742 381.996 412.669C389.306 410.129 394.466 406.109 396.526 401.329C398.476 396.829 397.446 392.169 393.646 388.109L388.856 389.769L366.996 397.379L363.266 414.729Z"
          fill="#2C78F6"/>
    <path opacity="0.75"
          d="M363.266 414.729L363.156 415.249C369.544 415.618 375.943 414.742 381.996 412.669C389.306 410.129 394.466 406.109 396.526 401.329C398.476 396.829 397.446 392.169 393.646 388.109L388.856 389.769L366.996 397.379L363.266 414.729Z"
          fill="white"/>
    <path d="M344.07 383.25L363.13 394.25L357.52 379C352.816 379.589 348.259 381.029 344.07 383.25Z" fill="#2C78F6"/>
    <path d="M364.05 403.45V397.18L360.25 415.05V421.32L364.05 403.45Z" fill="#2C78F6"/>
    <path opacity="0.55" d="M364.05 403.45V397.18L360.25 415.05V421.32L364.05 403.45Z" fill="black"/>
    <path d="M388.361 369.258L384.211 371.658L388.361 374.058L392.511 371.658L388.361 369.258Z" fill="#2C78F6"/>
    <path opacity="0.3" d="M388.361 369.258L384.211 371.658L388.361 374.058L392.511 371.658L388.361 369.258Z" fill="black"/>
    <path d="M392.509 371.66V374.06L388.359 376.46V374.06L392.509 371.66Z" fill="#2C78F6"/>
    <path opacity="0.4" d="M392.509 371.66V374.06L388.359 376.46V374.06L392.509 371.66Z" fill="black"/>
    <path d="M388.361 374.06V376.46L384.211 374.06V371.66L388.361 374.06Z" fill="#2C78F6"/>
    <path opacity="0.55" d="M388.361 374.06V376.46L384.211 374.06V371.66L388.361 374.06Z" fill="black"/>
    <path d="M394.699 367.399L410.079 358.519C410.574 358.258 411.123 358.117 411.682 358.106C412.241 358.096 412.795 358.216 413.299 358.459C414.159 358.959 414.119 359.789 413.199 360.319L397.819 369.199C397.325 369.462 396.776 369.604 396.216 369.615C395.657 369.625 395.102 369.503 394.599 369.259C393.729 368.769 393.779 367.929 394.699 367.399Z"
          fill="#E0E0E0"/>
    <path d="M397.705 374.668L393.555 377.058L397.705 379.458L401.865 377.058L397.705 374.668Z" fill="#2C78F6"/>
    <path opacity="0.88" d="M397.705 374.668L393.555 377.058L397.705 379.458L401.865 377.058L397.705 374.668Z" fill="white"/>
    <path d="M401.871 377.059V379.459L397.711 381.859V379.459L401.871 377.059Z" fill="#2C78F6"/>
    <path opacity="0.75" d="M401.871 377.059V379.459L397.711 381.859V379.459L401.871 377.059Z" fill="white"/>
    <path d="M397.705 379.459V381.859L393.555 379.459V377.059L397.705 379.459Z" fill="#2C78F6"/>
    <path opacity="0.6" d="M397.705 379.459V381.859L393.555 379.459V377.059L397.705 379.459Z" fill="white"/>
    <path d="M404.047 372.807L419.427 363.917C419.923 363.656 420.474 363.515 421.035 363.505C421.595 363.494 422.151 363.615 422.657 363.857C423.517 364.357 423.467 365.187 422.547 365.717L407.167 374.607C406.672 374.869 406.122 375.01 405.563 375.018C405.003 375.027 404.449 374.903 403.947 374.657C403.087 374.167 403.127 373.327 404.047 372.807Z"
          fill="#E0E0E0"/>
    <path d="M407.064 380.059L402.914 382.459L407.064 384.859L411.214 382.459L407.064 380.059Z" fill="#2C78F6"/>
    <path opacity="0.3" d="M407.064 380.059L402.914 382.459L407.064 384.859L411.214 382.459L407.064 380.059Z" fill="white"/>
    <path d="M411.22 382.457V384.857L407.07 387.257V384.857L411.22 382.457Z" fill="#2C78F6"/>
    <path d="M407.064 384.857V387.257L402.914 384.857V382.457L407.064 384.857Z" fill="#2C78F6"/>
    <path opacity="0.1" d="M407.064 384.857V387.257L402.914 384.857V382.457L407.064 384.857Z" fill="black"/>
    <path d="M413.404 378.209L428.784 369.319C429.278 369.059 429.827 368.917 430.386 368.907C430.946 368.896 431.499 369.017 432.004 369.259C432.864 369.759 432.814 370.589 431.904 371.119L416.514 379.999C416.019 380.261 415.469 380.402 414.91 380.411C414.35 380.419 413.796 380.295 413.294 380.049C412.434 379.569 412.484 378.739 413.404 378.209Z"
          fill="#E0E0E0"/>
    <path d="M416.416 385.457L412.266 387.857L416.416 390.257L420.566 387.857L416.416 385.457Z" fill="#455A64"/>
    <path d="M420.564 387.859V390.259L416.414 392.659V390.259L420.564 387.859Z" fill="#37474F"/>
    <path d="M416.416 390.259V392.659L412.266 390.259V387.859L416.416 390.259Z" fill="#263238"/>
    <path d="M422.758 383.61L438.138 374.72C438.632 374.459 439.182 374.318 439.742 374.309C440.301 374.3 440.855 374.424 441.358 374.67C442.218 375.16 442.178 375.99 441.258 376.52L425.878 385.41C425.383 385.671 424.834 385.812 424.275 385.823C423.716 385.833 423.162 385.712 422.658 385.47C421.798 385 421.838 384.14 422.758 383.61Z"
          fill="#E0E0E0"/>
    <g opacity="0.3">
        <path d="M348.611 357.91C348.531 357.91 348.451 357.89 348.381 357.85L318.761 340.75C318.692 340.708 318.635 340.649 318.595 340.579C318.555 340.509 318.533 340.43 318.531 340.35C318.532 340.27 318.553 340.192 318.594 340.124C318.634 340.055 318.692 339.999 318.761 339.96L355.761 318.58C355.83 318.54 355.907 318.52 355.986 318.52C356.065 318.52 356.143 318.54 356.211 318.58L385.841 335.68C385.91 335.721 385.967 335.78 386.006 335.85C386.044 335.92 386.064 336 386.061 336.08C386.063 336.159 386.043 336.236 386.005 336.305C385.966 336.374 385.909 336.43 385.841 336.47L348.841 357.85C348.771 357.89 348.692 357.91 348.611 357.91ZM319.901 340.35L348.611 356.93L384.731 336.08L356.001 319.5L319.901 340.35Z"
              fill="#2C78F6"/>
    </g>
    <path d="M348.611 353.178V220.748L326.391 207.918V340.348L348.611 353.178Z" fill="#2C78F6"/>
    <path opacity="0.2" d="M348.611 353.178V220.748L326.391 207.918V340.348L348.611 353.178Z" fill="black"/>
    <path d="M348.609 353.178L378.229 336.078L378.239 203.648L348.609 220.748V353.178Z" fill="#2C78F6"/>
    <path d="M378.241 203.646L356.021 190.816L326.391 207.916L348.611 220.746L378.241 203.646Z" fill="#2C78F6"/>
    <path opacity="0.25" d="M378.241 203.646L356.021 190.816L326.391 207.916L348.611 220.746L378.241 203.646Z" fill="white"/>
    <path opacity="0.3"
          d="M378.241 203.648L348.311 220.148L338.591 214.718L326.391 207.918L338.391 215.098L348.221 220.958C347.981 224.298 347.921 339.628 347.961 342.958C347.986 346.375 348.207 349.787 348.621 353.178C349.031 349.787 349.248 346.375 349.271 342.958C349.271 339.728 349.271 224.508 349.031 221.278L378.241 203.648Z"
          fill="white"/>
    <g opacity="0.3">
        <path d="M293.057 390C292.976 389.999 292.897 389.978 292.827 389.94L263.207 372.84C263.138 372.798 263.081 372.739 263.04 372.669C263 372.599 262.978 372.52 262.977 372.44C262.977 372.36 262.999 372.282 263.039 372.213C263.079 372.145 263.137 372.088 263.207 372.049L300.207 350.67C300.277 350.63 300.356 350.609 300.437 350.609C300.517 350.609 300.596 350.63 300.667 350.67L330.287 367.77C330.358 367.808 330.417 367.865 330.458 367.935C330.499 368.004 330.521 368.084 330.521 368.165C330.521 368.245 330.499 368.325 330.458 368.394C330.417 368.464 330.358 368.521 330.287 368.56L293.287 389.94C293.216 389.979 293.137 390 293.057 390ZM264.347 372.44L293.057 389L329.177 368.15L300.467 351.57L264.347 372.44Z"
              fill="#2C78F6"/>
    </g>
    <path d="M293.056 385.248V291.178L270.836 278.348V372.418L293.056 385.248Z" fill="#2C78F6"/>
    <path opacity="0.1" d="M293.056 385.248V291.178L270.836 278.348V372.418L293.056 385.248Z" fill="white"/>
    <path d="M293.055 385.248L322.685 368.138V274.078L293.055 291.178V385.248Z" fill="#2C78F6"/>
    <path opacity="0.3" d="M293.055 385.248L322.685 368.138V274.078L293.055 291.178V385.248Z" fill="white"/>
    <path d="M322.686 274.08L300.466 261.25L270.836 278.35L293.056 291.18L322.686 274.08Z" fill="#2C78F6"/>
    <path opacity="0.55" d="M322.686 274.08L300.466 261.25L270.836 278.35L293.056 291.18L322.686 274.08Z" fill="white"/>
    <path opacity="0.3"
          d="M293.446 291.718L322.686 274.078L292.756 290.578C289.526 288.748 286.286 286.948 283.046 285.148L270.836 278.348L282.836 285.518C286.116 287.518 289.386 289.458 292.676 291.388C292.576 294.848 292.466 320.088 292.436 323.548C292.406 327.008 292.386 360.548 292.436 364.068C292.486 367.588 292.516 371.128 292.626 374.658C292.736 378.188 292.866 381.718 293.086 385.248C293.316 381.718 293.456 378.188 293.546 374.658C293.636 371.128 293.716 367.598 293.736 364.068C293.756 360.538 293.736 327.068 293.736 323.548C293.656 320.198 293.546 295.068 293.446 291.718Z"
          fill="white"/>
    <g opacity="0.3">
        <path d="M237.518 422.047C237.437 422.047 237.358 422.026 237.288 421.987L207.658 404.887C207.59 404.844 207.534 404.785 207.496 404.715C207.457 404.645 207.437 404.566 207.438 404.487C207.436 404.408 207.456 404.33 207.494 404.261C207.533 404.193 207.589 404.136 207.658 404.097L244.658 382.717C244.726 382.677 244.804 382.656 244.883 382.656C244.962 382.656 245.039 382.677 245.108 382.717L274.738 399.817C274.807 399.858 274.863 399.916 274.902 399.987C274.941 400.057 274.96 400.136 274.958 400.217C274.959 400.295 274.94 400.373 274.901 400.442C274.862 400.51 274.806 400.567 274.738 400.607L237.738 421.987C237.671 422.026 237.595 422.047 237.518 422.047ZM208.798 404.487L237.518 421.067L273.638 400.217L244.918 383.637L208.798 404.487Z"
              fill="#2C78F6"/>
    </g>
    <path d="M237.519 417.318L237.509 353.178L215.289 340.348L215.299 404.488L237.519 417.318Z" fill="#2C78F6"/>
    <path opacity="0.45" d="M237.519 417.318L237.509 353.178L215.289 340.348L215.299 404.488L237.519 417.318Z" fill="black"/>
    <path d="M237.518 417.318L267.138 400.208L267.148 336.078L237.508 353.178L237.518 417.318Z" fill="#2C78F6"/>
    <path opacity="0.3" d="M237.518 417.318L267.138 400.208L267.148 336.078L237.508 353.178L237.518 417.318Z" fill="black"/>
    <path d="M267.149 336.08L244.929 323.25L215.289 340.35L237.509 353.18L267.149 336.08Z" fill="#2C78F6"/>
    <path opacity="0.15" d="M267.149 336.08L244.929 323.25L215.289 340.35L237.509 353.18L267.149 336.08Z" fill="black"/>
    <path opacity="0.3"
          d="M267.149 336.078L237.219 352.568L227.499 347.148L215.289 340.348L227.289 347.518L237.119 353.388C236.889 355.388 236.829 408.988 236.869 411.018C236.891 413.134 237.112 415.244 237.529 417.318C237.938 415.242 238.156 413.134 238.179 411.018C238.179 409.088 238.179 355.628 237.959 353.698L267.149 336.078Z"
          fill="white"/>
    <g opacity="0.3">
        <path d="M404.15 325.839C404.073 325.838 403.997 325.817 403.93 325.779L374.3 308.679C374.231 308.638 374.173 308.58 374.133 308.509C374.093 308.439 374.071 308.36 374.07 308.279C374.071 308.2 374.092 308.122 374.133 308.053C374.173 307.985 374.231 307.928 374.3 307.889L411.3 286.509C411.371 286.47 411.45 286.449 411.53 286.449C411.611 286.449 411.69 286.47 411.76 286.509L441.38 303.609C441.451 303.648 441.51 303.705 441.552 303.775C441.593 303.844 441.615 303.924 441.615 304.004C441.615 304.085 441.593 304.164 441.552 304.234C441.51 304.303 441.451 304.361 441.38 304.399L404.38 325.779C404.31 325.819 404.231 325.84 404.15 325.839ZM375.44 308.279L404.15 324.859L440.27 303.999L411.56 287.419L375.44 308.279Z"
              fill="#2C78F6"/>
    </g>
    <path d="M404.15 321.11V128.42L381.93 115.59L381.94 308.28L404.15 321.11Z" fill="#2C78F6"/>
    <path opacity="0.3" d="M404.15 321.11V128.42L381.93 115.59L381.94 308.28L404.15 321.11Z" fill="white"/>
    <path d="M404.148 321.106L433.778 304.006V111.316L404.148 128.416V321.106Z" fill="#2C78F6"/>
    <path opacity="0.55" d="M404.148 321.106L433.778 304.006V111.316L404.148 128.416V321.106Z" fill="white"/>
    <path d="M433.78 111.318L411.56 98.4883L381.93 115.588L404.15 128.418L433.78 111.318Z" fill="#2C78F6"/>
    <path opacity="0.75" d="M433.78 111.318L411.56 98.4883L381.93 115.588L404.15 128.418L433.78 111.318Z" fill="white"/>
    <path opacity="0.3"
          d="M404.54 128.998L433.78 111.348L403.85 127.848C400.63 126.018 397.38 124.218 394.14 122.418L381.93 115.618L393.93 122.798C397.21 124.798 400.48 126.728 403.78 128.658C403.67 132.578 403.56 136.498 403.53 140.418C403.5 144.338 403.53 293.208 403.53 297.198C403.53 301.188 403.61 305.198 403.73 309.198C403.85 313.198 403.96 317.198 404.19 321.198C404.41 317.198 404.55 313.198 404.64 309.198C404.73 305.198 404.82 301.198 404.84 297.198C404.86 293.198 404.84 144.408 404.84 140.418C404.75 136.588 404.65 132.778 404.54 128.998Z"
          fill="white"/>
    <path d="M353.619 151.438L328.729 165.808C328.04 166.257 327.467 166.862 327.055 167.575C326.643 168.287 326.405 169.086 326.359 169.908V190.098C326.359 191.608 327.419 192.218 328.729 191.468L337.899 186.158L340.359 190.408C340.467 190.599 340.627 190.756 340.822 190.857C341.016 190.959 341.236 191.002 341.455 190.981C341.673 190.96 341.881 190.875 342.052 190.738C342.223 190.601 342.351 190.416 342.419 190.208L345.309 181.888L353.619 177.098C354.31 176.65 354.886 176.045 355.3 175.332C355.713 174.62 355.953 173.82 355.999 172.998V152.808C355.999 151.298 354.929 150.688 353.619 151.438Z"
          fill="#FAFAFA"/>
    <path d="M327.669 192.33C327.359 192.332 327.054 192.249 326.789 192.09C326.455 191.88 326.185 191.582 326.008 191.23C325.832 190.877 325.756 190.483 325.789 190.09V169.91C325.833 168.995 326.095 168.105 326.552 167.311C327.01 166.518 327.649 165.846 328.419 165.35L353.349 151C353.669 150.778 354.042 150.646 354.431 150.616C354.819 150.586 355.208 150.66 355.559 150.83C355.89 151.042 356.159 151.339 356.335 151.692C356.511 152.044 356.588 152.437 356.559 152.83V173C356.515 173.915 356.252 174.807 355.793 175.6C355.334 176.394 354.691 177.065 353.919 177.56L345.789 182.25L342.969 190.39C342.863 190.694 342.672 190.961 342.418 191.159C342.165 191.358 341.859 191.48 341.539 191.51C341.22 191.536 340.899 191.472 340.615 191.325C340.33 191.178 340.092 190.955 339.929 190.68L337.749 186.89L329.039 191.89C328.629 192.156 328.156 192.308 327.669 192.33ZM354.669 151.65C354.389 151.667 354.118 151.753 353.879 151.9L328.999 166.27C328.391 166.673 327.884 167.211 327.518 167.843C327.152 168.474 326.936 169.181 326.889 169.91V190.1C326.865 190.3 326.892 190.503 326.967 190.69C327.042 190.877 327.163 191.042 327.319 191.17C327.507 191.242 327.71 191.266 327.91 191.238C328.109 191.21 328.298 191.131 328.459 191.01L338.099 185.44L340.819 190.15C340.876 190.25 340.961 190.332 341.064 190.385C341.167 190.439 341.283 190.461 341.399 190.45C341.516 190.438 341.627 190.394 341.719 190.321C341.811 190.248 341.881 190.151 341.919 190.04L344.869 181.52L353.349 176.64C353.956 176.236 354.461 175.697 354.825 175.066C355.189 174.434 355.403 173.727 355.449 173V152.81C355.475 152.61 355.45 152.408 355.376 152.22C355.303 152.033 355.183 151.868 355.029 151.74C354.919 151.677 354.795 151.646 354.669 151.65Z"
          fill="#E0E0E0"/>
    <path d="M331.922 183.67C331.841 183.67 331.762 183.649 331.691 183.609C331.621 183.568 331.563 183.51 331.522 183.44C331.492 183.388 331.473 183.331 331.465 183.272C331.457 183.212 331.461 183.152 331.477 183.094C331.493 183.037 331.52 182.983 331.557 182.936C331.594 182.888 331.64 182.849 331.692 182.82L350.202 172.13C350.254 172.091 350.314 172.064 350.377 172.05C350.44 172.036 350.506 172.035 350.569 172.048C350.633 172.061 350.693 172.088 350.745 172.125C350.798 172.163 350.842 172.212 350.874 172.268C350.907 172.324 350.927 172.386 350.934 172.45C350.941 172.515 350.934 172.58 350.914 172.641C350.894 172.703 350.861 172.76 350.818 172.808C350.775 172.856 350.722 172.894 350.662 172.92L332.142 183.61C332.075 183.648 331.999 183.669 331.922 183.67Z"
          fill="#E0E0E0"/>
    <path d="M331.922 179.391C331.841 179.392 331.762 179.371 331.691 179.33C331.621 179.29 331.563 179.232 331.522 179.161C331.492 179.11 331.473 179.052 331.465 178.993C331.457 178.934 331.461 178.873 331.477 178.816C331.493 178.758 331.52 178.704 331.557 178.657C331.594 178.61 331.64 178.57 331.692 178.541L350.202 167.851C350.309 167.793 350.434 167.777 350.552 167.809C350.669 167.841 350.77 167.917 350.832 168.021C350.89 168.126 350.905 168.25 350.873 168.366C350.842 168.482 350.766 168.581 350.662 168.641L332.142 179.331C332.075 179.37 331.999 179.39 331.922 179.391Z"
          fill="#E0E0E0"/>
    <path d="M331.922 175.119C331.841 175.12 331.762 175.098 331.691 175.058C331.621 175.018 331.563 174.959 331.522 174.889C331.492 174.838 331.473 174.78 331.465 174.721C331.457 174.662 331.461 174.601 331.477 174.544C331.493 174.486 331.52 174.432 331.557 174.385C331.594 174.338 331.64 174.298 331.692 174.269L350.202 163.579C350.254 163.541 350.314 163.513 350.377 163.499C350.44 163.485 350.506 163.485 350.569 163.498C350.633 163.511 350.693 163.537 350.745 163.575C350.798 163.612 350.842 163.661 350.874 163.717C350.907 163.773 350.927 163.835 350.934 163.899C350.941 163.964 350.934 164.029 350.914 164.091C350.894 164.152 350.861 164.209 350.818 164.257C350.775 164.305 350.722 164.343 350.662 164.369L332.142 175.059C332.075 175.097 331.999 175.118 331.922 175.119Z"
          fill="#E0E0E0"/>
    <path d="M331.915 170.841C331.835 170.841 331.757 170.821 331.687 170.782C331.617 170.744 331.558 170.688 331.515 170.621C331.485 170.568 331.465 170.51 331.457 170.45C331.449 170.39 331.453 170.329 331.469 170.27C331.485 170.212 331.512 170.157 331.549 170.109C331.586 170.061 331.632 170.021 331.685 169.991L350.195 159.301C350.302 159.242 350.427 159.227 350.544 159.258C350.662 159.29 350.762 159.366 350.825 159.471C350.883 159.576 350.898 159.699 350.866 159.815C350.835 159.931 350.759 160.03 350.655 160.091L332.135 170.781C332.068 170.819 331.992 170.839 331.915 170.841Z"
          fill="#2C78F6"/>
    <path d="M298.104 221.862L273.214 236.232C272.523 236.68 271.949 237.285 271.537 237.998C271.125 238.71 270.888 239.51 270.844 240.332V260.512C270.844 262.022 271.904 262.642 273.214 261.882L282.384 256.582L284.844 260.832C284.954 261.02 285.115 261.172 285.309 261.271C285.503 261.37 285.721 261.412 285.938 261.391C286.154 261.37 286.36 261.287 286.532 261.153C286.703 261.018 286.832 260.838 286.904 260.632L289.794 252.302L298.104 247.512C298.794 247.064 299.369 246.459 299.78 245.746C300.192 245.034 300.43 244.234 300.474 243.412V223.222C300.474 221.712 299.414 221.102 298.104 221.862Z"
          fill="#FAFAFA"/>
    <path d="M272.152 262.74C271.843 262.741 271.54 262.662 271.272 262.51C270.94 262.298 270.672 262.001 270.496 261.648C270.32 261.296 270.242 260.903 270.272 260.51V240.33C270.316 239.415 270.578 238.523 271.035 237.728C271.493 236.933 272.132 236.259 272.902 235.76L297.792 221.39C298.105 221.161 298.478 221.028 298.865 221.007C299.252 220.986 299.637 221.078 299.973 221.272C300.309 221.466 300.582 221.753 300.757 222.099C300.933 222.445 301.004 222.835 300.962 223.22V243.41C300.919 244.326 300.656 245.218 300.197 246.012C299.738 246.805 299.095 247.477 298.322 247.97L290.192 252.66L287.372 260.8C287.268 261.106 287.077 261.374 286.824 261.573C286.57 261.772 286.263 261.893 285.942 261.92C285.622 261.954 285.299 261.894 285.013 261.746C284.727 261.599 284.49 261.371 284.332 261.09L282.152 257.3L273.442 262.3C273.058 262.557 272.613 262.709 272.152 262.74ZM298.362 222.32L273.482 236.69C272.872 237.092 272.364 237.63 271.998 238.262C271.632 238.893 271.417 239.602 271.372 240.33V260.51C271.309 260.712 271.316 260.929 271.392 261.126C271.469 261.323 271.61 261.488 271.793 261.593C271.975 261.699 272.189 261.74 272.398 261.708C272.606 261.677 272.798 261.575 272.942 261.42L282.582 255.85L285.302 260.56C285.356 260.664 285.441 260.748 285.545 260.802C285.648 260.855 285.766 260.876 285.882 260.86C286 260.853 286.113 260.81 286.206 260.737C286.299 260.664 286.367 260.564 286.402 260.45L289.402 251.94L297.882 247.05C298.489 246.647 298.995 246.109 299.359 245.477C299.724 244.845 299.937 244.138 299.982 243.41V223.22C300.007 223.021 299.982 222.819 299.908 222.632C299.835 222.445 299.716 222.279 299.562 222.15C299.372 222.077 299.166 222.054 298.964 222.084C298.763 222.114 298.572 222.195 298.412 222.32H298.362Z"
          fill="#E0E0E0"/>
    <path d="M276.399 254.08C276.318 254.081 276.238 254.059 276.168 254.019C276.098 253.979 276.039 253.92 275.999 253.85C275.969 253.799 275.949 253.741 275.941 253.682C275.934 253.623 275.938 253.562 275.954 253.505C275.969 253.447 275.997 253.393 276.034 253.346C276.07 253.299 276.116 253.259 276.169 253.23L294.679 242.54C294.731 242.502 294.79 242.474 294.854 242.46C294.917 242.446 294.982 242.446 295.046 242.459C295.109 242.472 295.169 242.498 295.222 242.536C295.274 242.573 295.318 242.622 295.351 242.678C295.384 242.734 295.404 242.796 295.411 242.86C295.418 242.925 295.411 242.99 295.391 243.051C295.371 243.113 295.338 243.17 295.295 243.218C295.251 243.266 295.198 243.304 295.139 243.33L276.619 254C276.554 254.045 276.478 254.073 276.399 254.08Z"
          fill="#2C78F6"/>
    <path d="M276.399 249.811C276.318 249.811 276.238 249.79 276.168 249.749C276.098 249.709 276.039 249.651 275.999 249.581C275.969 249.529 275.949 249.472 275.941 249.412C275.934 249.353 275.938 249.293 275.954 249.235C275.969 249.177 275.997 249.123 276.034 249.076C276.07 249.029 276.116 248.99 276.169 248.961L294.679 238.271C294.731 238.232 294.79 238.205 294.854 238.191C294.917 238.177 294.982 238.176 295.046 238.189C295.109 238.202 295.169 238.228 295.222 238.266C295.274 238.304 295.318 238.352 295.351 238.408C295.384 238.464 295.404 238.526 295.411 238.591C295.418 238.655 295.411 238.72 295.391 238.782C295.371 238.844 295.338 238.9 295.295 238.948C295.251 238.996 295.198 239.035 295.139 239.061L276.619 249.751C276.552 249.789 276.476 249.809 276.399 249.811Z"
          fill="#E0E0E0"/>
    <path d="M276.399 245.529C276.318 245.53 276.238 245.509 276.168 245.468C276.098 245.428 276.039 245.37 275.999 245.299C275.969 245.248 275.949 245.19 275.941 245.131C275.934 245.072 275.938 245.011 275.954 244.954C275.969 244.896 275.997 244.842 276.034 244.795C276.07 244.748 276.116 244.709 276.169 244.679L294.679 233.999C294.731 233.969 294.789 233.949 294.849 233.941C294.91 233.934 294.971 233.938 295.029 233.953C295.088 233.969 295.143 233.996 295.191 234.033C295.239 234.071 295.279 234.117 295.309 234.169C295.367 234.275 295.382 234.398 295.35 234.514C295.318 234.63 295.242 234.729 295.139 234.789L276.619 245.479C276.551 245.514 276.475 245.531 276.399 245.529Z"
          fill="#E0E0E0"/>
    <path d="M276.399 241.26C276.318 241.26 276.238 241.239 276.168 241.199C276.098 241.158 276.039 241.1 275.999 241.03C275.969 240.978 275.949 240.921 275.941 240.862C275.934 240.802 275.938 240.742 275.954 240.684C275.969 240.626 275.997 240.572 276.034 240.525C276.07 240.478 276.116 240.439 276.169 240.41L294.679 229.72C294.731 229.681 294.79 229.654 294.854 229.64C294.917 229.626 294.982 229.625 295.046 229.638C295.109 229.651 295.169 229.677 295.222 229.715C295.274 229.753 295.318 229.801 295.351 229.857C295.384 229.913 295.404 229.976 295.411 230.04C295.418 230.104 295.411 230.17 295.391 230.231C295.371 230.293 295.338 230.349 295.295 230.397C295.251 230.446 295.198 230.484 295.139 230.51L276.619 241.2C276.552 241.238 276.476 241.259 276.399 241.26Z"
          fill="#E0E0E0"/>
    <path d="M242.573 283.85L217.682 298.22C216.992 298.669 216.418 299.274 216.006 299.986C215.594 300.699 215.356 301.499 215.312 302.32V322.5C215.312 324.01 216.372 324.63 217.682 323.87L226.853 318.57L229.312 322.82C229.424 323.008 229.587 323.159 229.781 323.258C229.976 323.356 230.194 323.397 230.411 323.376C230.628 323.355 230.834 323.273 231.006 323.139C231.178 323.005 231.309 322.826 231.383 322.62L234.262 314.29L242.573 309.5C243.263 309.052 243.837 308.447 244.249 307.735C244.661 307.022 244.899 306.222 244.943 305.4V285.21C244.943 283.7 243.883 283.09 242.573 283.85Z"
          fill="#FAFAFA"/>
    <path d="M216.62 324.729C216.312 324.728 216.009 324.649 215.74 324.499C215.409 324.287 215.141 323.989 214.965 323.637C214.788 323.285 214.711 322.891 214.74 322.499V302.319C214.784 301.402 215.047 300.508 215.506 299.714C215.965 298.919 216.608 298.245 217.38 297.749L242.26 283.379C242.573 283.149 242.946 283.016 243.334 282.995C243.721 282.974 244.106 283.066 244.442 283.26C244.778 283.454 245.05 283.742 245.226 284.088C245.401 284.433 245.472 284.823 245.43 285.209V305.399C245.388 306.313 245.127 307.205 244.669 307.998C244.212 308.791 243.571 309.464 242.8 309.959L234.66 314.649L231.84 322.789C231.733 323.085 231.543 323.345 231.294 323.538C231.045 323.731 230.746 323.849 230.432 323.88C230.118 323.91 229.802 323.851 229.52 323.709C229.239 323.567 229.003 323.349 228.84 323.079L226.65 319.289L217.94 324.289C217.548 324.551 217.092 324.703 216.62 324.729ZM242.84 284.309L218 298.679C217.392 299.081 216.885 299.619 216.521 300.251C216.157 300.883 215.944 301.591 215.9 302.319V322.499C215.875 322.699 215.899 322.904 215.973 323.092C216.046 323.281 216.166 323.448 216.32 323.579C216.511 323.646 216.716 323.666 216.917 323.637C217.117 323.607 217.307 323.529 217.47 323.409L227.1 317.839L229.82 322.549C229.88 322.648 229.966 322.729 230.07 322.782C230.174 322.834 230.29 322.855 230.406 322.844C230.521 322.832 230.631 322.788 230.722 322.716C230.813 322.645 230.882 322.548 230.92 322.439L233.87 313.929L242.3 308.999C242.909 308.596 243.416 308.058 243.782 307.426C244.149 306.795 244.363 306.087 244.41 305.359V285.209C244.434 285.009 244.408 284.806 244.332 284.619C244.257 284.432 244.136 284.267 243.98 284.139C243.792 284.065 243.588 284.042 243.388 284.072C243.188 284.102 242.999 284.183 242.84 284.309Z"
          fill="#E0E0E0"/>
    <path d="M220.874 316.068C220.771 316.074 220.669 316.044 220.585 315.984C220.501 315.924 220.441 315.836 220.414 315.737C220.387 315.637 220.395 315.531 220.437 315.437C220.479 315.342 220.552 315.265 220.644 315.218L239.164 304.528C239.268 304.469 239.393 304.453 239.509 304.485C239.566 304.501 239.62 304.528 239.667 304.564C239.715 304.601 239.754 304.646 239.784 304.698C239.813 304.75 239.832 304.807 239.84 304.867C239.847 304.926 239.843 304.986 239.827 305.044C239.811 305.101 239.784 305.155 239.748 305.202C239.711 305.249 239.666 305.289 239.614 305.318L221.104 315.998C221.034 316.04 220.955 316.064 220.874 316.068Z"
          fill="#E0E0E0"/>
    <path d="M220.872 311.799C220.791 311.799 220.711 311.778 220.641 311.738C220.571 311.697 220.512 311.639 220.472 311.569C220.413 311.464 220.399 311.34 220.43 311.224C220.462 311.109 220.538 311.01 220.642 310.949L239.162 300.259C239.213 300.229 239.27 300.208 239.328 300.2C239.387 300.191 239.447 300.195 239.505 300.21C239.563 300.224 239.617 300.251 239.664 300.287C239.712 300.323 239.752 300.368 239.782 300.419C239.84 300.526 239.856 300.651 239.824 300.768C239.792 300.886 239.716 300.987 239.612 301.049L221.102 311.739C221.031 311.778 220.952 311.798 220.872 311.799Z"
          fill="#E0E0E0"/>
    <path d="M220.874 307.517C220.771 307.523 220.669 307.493 220.585 307.433C220.501 307.372 220.441 307.285 220.414 307.185C220.387 307.086 220.395 306.98 220.437 306.886C220.479 306.791 220.552 306.714 220.644 306.667L239.164 295.997C239.216 295.968 239.273 295.948 239.332 295.941C239.391 295.934 239.451 295.938 239.509 295.954C239.566 295.969 239.62 295.996 239.667 296.033C239.715 296.07 239.754 296.115 239.784 296.167C239.813 296.219 239.832 296.276 239.84 296.335C239.847 296.395 239.843 296.455 239.827 296.512C239.811 296.57 239.784 296.624 239.748 296.671C239.711 296.718 239.666 296.758 239.614 296.787L221.104 307.457C221.033 307.496 220.954 307.516 220.874 307.517Z"
          fill="#2C78F6"/>
    <path d="M220.872 303.249C220.791 303.249 220.711 303.228 220.641 303.187C220.571 303.147 220.512 303.089 220.472 303.019C220.413 302.914 220.399 302.79 220.43 302.674C220.462 302.558 220.538 302.459 220.642 302.399L239.162 291.709C239.266 291.649 239.388 291.633 239.504 291.663C239.62 291.693 239.719 291.767 239.782 291.869C239.84 291.975 239.856 292.1 239.824 292.218C239.792 292.335 239.716 292.436 239.612 292.499L221.102 303.189C221.031 303.227 220.952 303.248 220.872 303.249Z"
          fill="#E0E0E0"/>
    <path d="M409.19 59.0992L384.3 73.4692C383.609 73.9173 383.035 74.5224 382.623 75.2349C382.211 75.9475 381.974 76.7473 381.93 77.5692V97.7592C381.93 99.2692 382.99 99.8792 384.3 99.1192L393.47 93.8192L395.93 98.0692C396.039 98.26 396.2 98.4152 396.395 98.5163C396.591 98.6173 396.811 98.6599 397.029 98.6387C397.248 98.6176 397.456 98.5337 397.628 98.3972C397.8 98.2607 397.929 98.0773 398 97.8692L400.88 89.5392L409.19 84.7492C409.88 84.301 410.455 83.6959 410.866 82.9834C411.278 82.2708 411.516 81.471 411.56 80.6492V60.4692C411.56 58.9992 410.5 58.3392 409.19 59.0992Z"
          fill="#FAFAFA"/>
    <path d="M383.238 99.9987C382.93 99.9981 382.627 99.919 382.358 99.7687C382.026 99.5575 381.757 99.2597 381.581 98.9074C381.404 98.555 381.328 98.1614 381.358 97.7687V77.5687C381.4 76.6511 381.661 75.757 382.121 74.9616C382.58 74.1663 383.224 73.493 383.998 72.9987L408.878 58.6287C409.191 58.3994 409.564 58.2662 409.951 58.2451C410.339 58.2241 410.724 58.3161 411.06 58.5101C411.396 58.704 411.668 58.9915 411.844 59.3375C412.019 59.6835 412.09 60.073 412.048 60.4587V80.6487C412.004 81.5644 411.742 82.4564 411.285 83.251C410.827 84.0457 410.188 84.7201 409.418 85.2187L401.278 89.8987L398.498 97.9987C398.396 98.3033 398.207 98.5716 397.955 98.7705C397.703 98.9695 397.398 99.0905 397.078 99.1187C396.758 99.1551 396.434 99.0956 396.147 98.9479C395.861 98.8001 395.624 98.5707 395.468 98.2887L393.278 94.5087L384.568 99.5087C384.178 99.7902 383.718 99.9596 383.238 99.9987ZM409.458 59.5787L384.568 73.9287C383.961 74.332 383.455 74.8705 383.091 75.5021C382.726 76.1336 382.513 76.841 382.468 77.5687V97.7587C382.409 97.9594 382.419 98.1742 382.497 98.3685C382.575 98.5627 382.716 98.725 382.897 98.8291C383.079 98.9332 383.29 98.973 383.497 98.942C383.704 98.9111 383.895 98.8113 384.038 98.6587L393.668 93.0887L396.388 97.7987C396.442 97.9021 396.527 97.9863 396.631 98.0399C396.735 98.0936 396.852 98.1141 396.968 98.0987C397.085 98.0923 397.197 98.0506 397.29 97.9792C397.383 97.9078 397.452 97.81 397.488 97.6987L400.438 89.1787L408.918 84.2887C409.521 83.8826 410.023 83.343 410.383 82.7117C410.744 82.0804 410.955 81.3744 410.998 80.6487V60.4687C411.061 60.2672 411.054 60.0501 410.978 59.8533C410.901 59.6565 410.76 59.4915 410.577 59.3856C410.394 59.2797 410.181 59.2391 409.972 59.2706C409.763 59.302 409.572 59.4036 409.428 59.5587L409.458 59.5787Z"
          fill="#E0E0E0"/>
    <path d="M395.25 87C395.251 86.395 395.389 85.7981 395.654 85.2542C395.919 84.7103 396.304 84.2336 396.78 83.86C397.59 83.4 398.24 84.08 398.24 85.27C398.257 85.8794 398.134 86.4845 397.881 87.0391C397.628 87.5937 397.251 88.0831 396.78 88.47C395.92 89 395.25 88.28 395.25 87ZM395.43 71.54L398.14 70L397.6 81.58L395.97 82.52L395.43 71.54Z"
          fill="#2C78F6"/>
</svg>
